<?xml version="1.0" standalone="no"?>
<!DOCTYPE svg PUBLIC "-//W3C//DTD SVG 20010904//EN"
 "http://www.w3.org/TR/2001/REC-SVG-20010904/DTD/svg10.dtd">
<svg version="1.0" xmlns="http://www.w3.org/2000/svg"
 width="1024.000000pt" height="1024.000000pt" viewBox="0 0 1024.000000 1024.000000"
 preserveAspectRatio="xMidYMid meet">
<metadata>
Created by potrace 1.11, written by Peter Selinger 2001-2013
</metadata>
<g transform="translate(0.000000,1024.000000) scale(0.100000,-0.100000)"
fill="#000000" stroke="none">
<path d="M4800 10229 c-886 -51 -1787 -356 -2535 -859 -740 -497 -1342 -1186
-1735 -1985 -317 -644 -484 -1293 -521 -2024 -44 -862 135 -1721 521 -2506
494 -1004 1304 -1818 2311 -2320 634 -315 1306 -489 2038 -526 863 -44 1745
140 2520 526 999 499 1807 1307 2306 2306 315 634 489 1306 526 2038 44 862
-135 1721 -521 2506 -497 1010 -1315 1828 -2325 2325 -807 398 -1673 571
-2585 519z m-2282 -4711 l-3 -1273 -26 -95 c-67 -241 -189 -413 -381 -537
-180 -116 -363 -163 -638 -163 -340 0 -575 80 -762 258 -43 41 -94 100 -115
131 -82 123 -134 290 -149 474 l-7 87 222 0 221 0 0 -58 c0 -73 30 -193 65
-262 33 -66 104 -143 170 -185 128 -82 341 -115 510 -80 168 35 316 148 388
295 74 151 70 73 74 1448 l4 1232 215 0 215 0 -3 -1272z m2027 1240 c24 -52
1245 -3249 1245 -3259 0 -5 -96 -9 -219 -9 l-219 0 -30 78 c-16 42 -87 236
-158 430 l-128 352 -692 0 -691 0 -154 -430 -154 -430 -222 0 c-123 0 -223 3
-223 7 0 4 282 746 628 1650 l627 1643 188 0 187 0 15 -32z m2794 -1310 c295
-736 539 -1338 542 -1338 3 0 247 602 541 1338 l537 1337 280 3 281 2 0 -1650
0 -1650 -215 0 -215 0 0 678 c0 447 7 897 20 1326 11 357 19 651 17 652 -1 1
-245 -596 -541 -1327 l-539 -1329 -167 0 -166 0 -534 1318 c-293 724 -537
1321 -541 1326 -4 4 -5 -36 -3 -90 21 -458 44 -1481 44 -1971 l0 -583 -220 0
-220 0 0 1650 0 1650 282 -2 282 -3 535 -1337z"/>
<path d="M4067 5488 c-152 -420 -277 -767 -277 -771 0 -4 250 -7 555 -7 330 0
555 4 555 9 0 7 -484 1342 -547 1509 -7 19 -62 -122 -286 -740z"/>
</g>
</svg>
