<svg fill="none" height="700" viewBox="0 0 700 700" width="700" xmlns="http://www.w3.org/2000/svg"><path d="m119.986 233.766h53.662v153.167c0 14.207-3.322 26.882-9.966 38.023-6.542 11.141-15.741 19.778-27.598 25.911-11.754 6.133-24.889 9.199-39.4029 9.199-24.3268 0-43.2363-6.132-56.7285-18.398s-20.2383-29.642-20.2383-52.129h53.9688c0 10.221 1.7376 17.632 5.2129 22.232 3.5774 4.599 9.5058 6.899 17.7851 6.899 7.4619 0 13.1859-2.76 17.1719-8.279 4.089-5.622 6.133-13.441 6.133-23.458zm215.602 181.531h-73.747l-12.879 41.703h-57.495l81.873-223.234h50.596l82.486 223.234h-57.802zm-60.868-41.55h47.989l-24.071-77.427zm223.268-139.981 49.829 155.313 49.676-155.313h70.834v223.234h-53.969v-52.129l5.213-106.711-53.969 158.84h-35.57l-54.122-158.993 5.213 106.864v52.129h-53.816v-223.234z" fill="#000"/></svg>