<svg fill="none" height="139" viewBox="0 0 492 139" width="492" xmlns="http://www.w3.org/2000/svg"><rect fill="#00f5c4" height="66" rx="9" width="160"/><rect fill="#ff871f" height="66" rx="9" width="160" x="166"/><rect fill="#000" height="66" rx="9" width="492" y="73"/><rect fill="#e88da3" height="66" rx="9" width="160" x="332"/><g fill="#000"><path d="m40.2656 25.7812h2.461v9.9708c0 1.3606-.4265 2.4414-1.2793 3.2421-.8464.8008-1.9662 1.2012-3.3594 1.2012-1.4844 0-2.6302-.3743-3.4375-1.123s-1.2109-1.7904-1.2109-3.125h2.4609c0 .7552.1855 1.3248.5566 1.7089.3776.3777.9213.5665 1.6309.5665.6641 0 1.1914-.2181 1.582-.6543.3972-.4427.5957-1.0515.5957-1.8262zm11.377 14.2188c-.1042-.2018-.1953-.5306-.2735-.9863-.7552.7877-1.6796 1.1816-2.7734 1.1816-1.0612 0-1.9271-.3027-2.5977-.9082-.6705-.6055-1.0058-1.3542-1.0058-2.2461 0-1.1263.4167-1.9889 1.25-2.5879.8398-.6054 2.0377-.9082 3.5937-.9082h1.4551v-.6933c0-.5469-.153-.9831-.459-1.3086-.306-.3321-.7715-.4981-1.3965-.4981-.5403 0-.983.1367-1.3281.4102-.345.2669-.5176.6087-.5176 1.0254h-2.373c0-.5795.1921-1.1198.5762-1.6211.3841-.5078.9049-.905 1.5625-1.1914.664-.2865 1.403-.4297 2.2168-.4297 1.2369 0 2.2233.3125 2.9589.9375.7357.6185 1.1133 1.4909 1.1329 2.6172v4.7656c0 .9505.1334 1.709.4004 2.2754v.166zm-2.6074-1.709c.4687 0 .9082-.1139 1.3183-.3418.4167-.2278.7292-.5338.9375-.918v-1.9921h-1.2793c-.8789 0-1.5397.153-1.9824.4589-.4427.306-.6641.739-.6641 1.2989 0 .4557.1498.8203.4493 1.0937.3059.267.7128.4004 1.2207.4004zm10.6836-1.2988 2.2363-7.5586h2.4511l-3.6621 10.5664h-2.0605l-3.6914-10.5664h2.4609zm12.3339 3.0078c-.1041-.2018-.1953-.5306-.2734-.9863-.7552.7877-1.6797 1.1816-2.7734 1.1816-1.0612 0-1.9271-.3027-2.5977-.9082s-1.0059-1.3542-1.0059-2.2461c0-1.1263.4167-1.9889 1.25-2.5879.8399-.6054 2.0378-.9082 3.5938-.9082h1.4551v-.6933c0-.5469-.153-.9831-.459-1.3086-.306-.3321-.7715-.4981-1.3965-.4981-.5404 0-.9831.1367-1.3281.4102-.3451.2669-.5176.6087-.5176 1.0254h-2.373c0-.5795.192-1.1198.5761-1.6211.3841-.5078.905-.905 1.5625-1.1914.6641-.2865 1.403-.4297 2.2168-.4297 1.237 0 2.2233.3125 2.959.9375.7357.6185 1.1133 1.4909 1.1328 2.6172v4.7656c0 .9505.1335 1.709.4004 2.2754v.166zm-2.6074-1.709c.4688 0 .9082-.1139 1.3184-.3418.4166-.2278.7291-.5338.9375-.918v-1.9921h-1.2793c-.8789 0-1.5397.153-1.9824.4589-.4428.306-.6641.739-.6641 1.2989 0 .4557.1497.8203.4492 1.0937.306.267.7129.4004 1.2207.4004zm14.7754-1.9531c0-.625-.2214-1.1068-.6641-1.4453-.4362-.3386-1.2272-.6804-2.373-1.0254-1.1458-.3451-2.0573-.7292-2.7344-1.1524-1.2956-.8138-1.9433-1.875-1.9433-3.1836 0-1.1458.4655-2.0898 1.3964-2.832.9375-.7422 2.1517-1.1133 3.6426-1.1133.9896 0 1.8718.1823 2.6465.5469s1.3835.8854 1.8262 1.5625c.4427.6706.664 1.416.664 2.2363h-2.4609c0-.7421-.2344-1.3216-.7031-1.7382-.4623-.4232-1.1263-.6348-1.9922-.6348-.8073 0-1.4356.1725-1.8848.5176-.4427.345-.664.8268-.664 1.4453 0 .5208.2408.957.7226 1.3086.4818.345 1.2761.6836 2.3828 1.0156 1.1068.3255 1.9955.6999 2.666 1.1231.6706.4166 1.1622.8984 1.4747 1.4453.3125.5403.4687 1.1751.4687 1.9043 0 1.1849-.4557 2.1289-1.3672 2.832-.9049.6966-2.1354 1.0449-3.6914 1.0449-1.0286 0-1.9759-.1888-2.8418-.5664-.8594-.3841-1.5299-.9115-2.0117-1.582-.4753-.6706-.7129-1.4518-.7129-2.3438h2.4707c0 .8073.2669 1.4323.8008 1.875.5338.4427 1.2988.6641 2.2949.6641.8594 0 1.5039-.1725 1.9336-.5176.4362-.3516.6543-.8138.6543-1.3867zm8.75 1.9629c.5925 0 1.084-.1725 1.4746-.5176.3906-.345.599-.7715.625-1.2793h2.2363c-.026.6576-.2311 1.2728-.6152 1.8457-.3841.5664-.9049 1.0156-1.5625 1.3477-.6575.332-1.3672.498-2.1289.498-1.4779 0-2.6497-.4785-3.5156-1.4355-.8659-.9571-1.2989-2.2787-1.2989-3.9649v-.2441c0-1.6081.4297-2.8939 1.2891-3.8574.8594-.9701 2.0313-1.4551 3.5156-1.4551 1.2565 0 2.2787.3678 3.0664 1.1035.7943.7292 1.211 1.6894 1.25 2.8809h-2.2363c-.026-.6055-.2344-1.1036-.625-1.4942-.3841-.3906-.8756-.5859-1.4746-.5859-.7682 0-1.3607.2799-1.7773.8398-.4167.5534-.6283 1.3965-.6348 2.5293v.3809c0 1.1458.2051 2.0019.6152 2.5683.4167.5599 1.0157.8399 1.7969.8399zm11.6603-6.6992c-.313-.0521-.635-.0782-.967-.0782-1.087 0-1.82.4167-2.197 1.25v7.2266h-2.3732v-10.5664h2.2652l.059 1.1816c.573-.9179 1.367-1.3769 2.383-1.3769.338 0 .618.0456.84.1367zm4.023 8.3984h-2.373v-10.5664h2.373zm-2.519-13.3105c0-.3646.114-.6674.342-.9083.234-.2408.566-.3613.996-.3613.429 0 .761.1205.996.3613.234.2409.351.5437.351.9083 0 .358-.117.6575-.351.8984-.235.2344-.567.3516-.996.3516-.43 0-.762-.1172-.996-.3516-.228-.2409-.342-.5404-.342-.8984zm14.365 8.1347c0 1.6341-.371 2.9395-1.113 3.916-.742.9701-1.739 1.4551-2.989 1.4551-1.158 0-2.086-.3808-2.783-1.1426v5.0098h-2.373v-14.6289h2.188l.097 1.0742c.697-.8463 1.644-1.2695 2.842-1.2695 1.289 0 2.298.4818 3.027 1.4453.736.957 1.104 2.2884 1.104 3.9941zm-2.363-.2051c0-1.0546-.212-1.8912-.635-2.5097-.417-.6185-1.016-.9278-1.797-.9278-.97 0-1.667.4004-2.09 1.2012v4.6875c.43.8203 1.133 1.2305 2.11 1.2305.755 0 1.344-.3028 1.767-.9082.43-.612.645-1.5365.645-2.7735zm7.353-7.7539v2.5684h1.865v1.7578h-1.865v5.8984c0 .4037.078.6967.235.879.162.1757.449.2636.859.2636.273 0 .55-.0325.83-.0976v1.8359c-.54.1497-1.061.2246-1.562.2246-1.823 0-2.735-1.0058-2.735-3.0176v-5.9863h-1.738v-1.7578h1.738v-2.5684z"/><path d="m231.404 36.6895h-5.508l-1.152 3.3105h-2.568l5.371-14.2188h2.217l5.381 14.2188h-2.579zm-4.814-1.9922h4.121l-2.061-5.8985zm12.646.0195v5.2832h-2.47v-14.2188h5.439c1.589 0 2.848.4135 3.779 1.2403.938.8268 1.407 1.9206 1.407 3.2812 0 1.3933-.459 2.4772-1.377 3.252-.912.7747-2.191 1.1621-3.838 1.1621zm0-1.9824h2.969c.879 0 1.55-.2051 2.012-.6153.462-.4166.693-1.0156.693-1.7968 0-.7683-.234-1.3802-.703-1.836-.469-.4622-1.113-.6998-1.934-.7129h-3.037zm12.93 7.2656h-2.461v-14.2188h2.461zm8.73-2.8711c0-.4232-.175-.7454-.527-.9668-.345-.2213-.921-.4167-1.728-.5859-.808-.1693-1.481-.3841-2.022-.6446-1.185-.5729-1.777-1.403-1.777-2.4902 0-.9115.384-1.6732 1.152-2.2852.768-.6119 1.745-.9179 2.93-.9179 1.263 0 2.282.3125 3.056.9375.782.625 1.172 1.4355 1.172 2.4316h-2.373c0-.4557-.169-.8333-.508-1.1328-.338-.306-.787-.459-1.347-.459-.521 0-.947.1205-1.279.3614-.326.2408-.489.5631-.489.9668 0 .3645.153.6477.459.8496.306.2018.925.4069 1.856.6152.931.2018 1.66.446 2.187.7324.534.28.928.6185 1.182 1.0156.26.3972.39.8789.39 1.4454 0 .9505-.393 1.722-1.181 2.3144-.788.5859-1.82.8789-3.096.8789-.866 0-1.637-.1562-2.314-.4687s-1.205-.7422-1.582-1.2891c-.378-.5469-.567-1.1361-.567-1.7676h2.305c.032.5599.244.9929.635 1.2989.39.2994.908.4492 1.552.4492.625 0 1.101-.1172 1.426-.3516.326-.2409.488-.5534.488-.9375z"/><path d="m382.648 25.7812 4.102 10.8985 4.092-10.8985h3.193v14.2188h-2.461v-4.6875l.244-6.2695-4.199 10.957h-1.767l-4.19-10.9473.244 6.2598v4.6875h-2.461v-14.2188zm20.401 14.2188c-.104-.2018-.195-.5306-.274-.9863-.755.7877-1.679 1.1816-2.773 1.1816-1.061 0-1.927-.3027-2.598-.9082-.67-.6055-1.006-1.3542-1.006-2.2461 0-1.1263.417-1.9889 1.25-2.5879.84-.6054 2.038-.9082 3.594-.9082h1.455v-.6933c0-.5469-.153-.9831-.459-1.3086-.306-.3321-.771-.4981-1.396-.4981-.541 0-.983.1367-1.328.4102-.345.2669-.518.6087-.518 1.0254h-2.373c0-.5795.192-1.1198.576-1.6211.384-.5078.905-.905 1.563-1.1914.664-.2865 1.403-.4297 2.217-.4297 1.236 0 2.223.3125 2.959.9375.735.6185 1.113 1.4909 1.132 2.6172v4.7656c0 .9505.134 1.709.401 2.2754v.166zm-2.608-1.709c.469 0 .909-.1139 1.319-.3418.416-.2278.729-.5338.937-.918v-1.9921h-1.279c-.879 0-1.54.153-1.982.4589-.443.306-.665.739-.665 1.2989 0 .4557.15.8203.45 1.0937.306.267.713.4004 1.22.4004zm12.647-6.6894c-.313-.0521-.635-.0782-.967-.0782-1.087 0-1.82.4167-2.197 1.25v7.2266h-2.373v-10.5664h2.265l.059 1.1816c.573-.9179 1.367-1.3769 2.383-1.3769.338 0 .618.0456.84.1367zm4.932 3.8672-1.055 1.0839v3.4473h-2.373v-15h2.373v8.6523l.742-.9277 2.92-3.291h2.852l-3.926 4.4043 4.345 6.1621h-2.744zm13.418 3.496c-.697.8204-1.687 1.2305-2.969 1.2305-1.146 0-2.015-.3353-2.608-1.0058-.586-.6706-.879-1.6407-.879-2.9102v-6.8457h2.373v6.8164c0 1.3411.557 2.0117 1.67 2.0117 1.153 0 1.931-.4134 2.334-1.2402v-7.5879h2.373v10.5664h-2.236zm13.964-4.1406c0 1.6341-.371 2.9395-1.113 3.916-.742.9701-1.738 1.4551-2.988 1.4551-1.159 0-2.087-.3808-2.783-1.1426v5.0098h-2.373v-14.6289h2.187l.098 1.0742c.696-.8463 1.644-1.2695 2.841-1.2695 1.29 0 2.299.4818 3.028 1.4453.736.957 1.103 2.2884 1.103 3.9941zm-2.363-.2051c0-1.0546-.212-1.8912-.635-2.5097-.416-.6185-1.015-.9278-1.797-.9278-.97 0-1.666.4004-2.089 1.2012v4.6875c.429.8203 1.132 1.2305 2.109 1.2305.755 0 1.344-.3028 1.768-.9082.429-.612.644-1.5365.644-2.7735z"/></g><path d="m206.266 97.7812h2.461v9.9708c0 1.361-.427 2.441-1.28 3.242-.846.801-1.966 1.201-3.359 1.201-1.484 0-2.63-.374-3.438-1.123-.807-.748-1.211-1.79-1.211-3.125h2.461c0 .755.186 1.325.557 1.709.378.378.921.567 1.631.567.664 0 1.191-.218 1.582-.655.397-.442.596-1.051.596-1.826zm11.377 14.2188c-.105-.202-.196-.531-.274-.986-.755.787-1.68 1.181-2.773 1.181-1.061 0-1.927-.302-2.598-.908-.671-.605-1.006-1.354-1.006-2.246 0-1.126.417-1.989 1.25-2.588.84-.605 2.038-.908 3.594-.908h1.455v-.693c0-.547-.153-.984-.459-1.309-.306-.332-.771-.498-1.396-.498-.541 0-.984.137-1.329.41-.345.267-.517.609-.517 1.025h-2.373c0-.579.192-1.119.576-1.621.384-.507.905-.905 1.562-1.191.665-.286 1.403-.43 2.217-.43 1.237 0 2.224.313 2.959.938.736.618 1.114 1.491 1.133 2.617v4.766c0 .95.134 1.709.4 2.275v.166zm-2.608-1.709c.469 0 .908-.114 1.319-.342.416-.228.729-.534.937-.918v-1.992h-1.279c-.879 0-1.54.153-1.983.459-.442.306-.664.739-.664 1.299 0 .456.15.82.449 1.094.306.267.713.4 1.221.4zm9.346-8.857.068 1.103c.742-.866 1.758-1.299 3.047-1.299 1.413 0 2.38.541 2.9 1.621.769-1.08 1.849-1.621 3.243-1.621 1.165 0 2.031.323 2.597.967.573.645.866 1.595.879 2.852v6.943h-2.373v-6.875c0-.671-.146-1.162-.439-1.475-.293-.312-.778-.468-1.455-.468-.541 0-.983.146-1.328.439-.339.287-.577.664-.713 1.133l.009 7.246h-2.373v-6.953c-.032-1.244-.667-1.865-1.904-1.865-.95 0-1.624.387-2.021 1.162v7.656h-2.373v-10.566zm21.094 7.695c0-.423-.176-.746-.528-.967-.345-.221-.921-.417-1.728-.586-.808-.169-1.481-.384-2.022-.644-1.185-.573-1.777-1.403-1.777-2.491 0-.911.384-1.673 1.152-2.285s1.745-.918 2.93-.918c1.263 0 2.282.313 3.057.938.781.625 1.171 1.435 1.171 2.431h-2.373c0-.455-.169-.833-.507-1.132-.339-.306-.788-.459-1.348-.459-.521 0-.947.12-1.279.361-.326.241-.489.563-.489.967 0 .364.153.648.459.849.306.202.925.407 1.856.616.931.201 1.66.446 2.187.732.534.28.928.619 1.182 1.016.26.397.391.879.391 1.445 0 .95-.394 1.722-1.182 2.314-.788.586-1.82.879-3.096.879-.866 0-1.637-.156-2.314-.468-.677-.313-1.205-.743-1.582-1.289-.378-.547-.567-1.137-.567-1.768h2.305c.033.56.244.993.635 1.299.39.299.908.449 1.553.449.625 0 1.1-.117 1.425-.352.326-.24.489-.553.489-.937zm7.382-10.2638v2.5688h1.866v1.757h-1.866v5.899c0 .403.079.696.235.879.163.176.449.263.859.263.274 0 .55-.032.83-.097v1.836c-.54.149-1.061.224-1.562.224-1.823 0-2.735-1.006-2.735-3.017v-5.987h-1.738v-1.757h1.738v-2.5688zm10 13.1348c-.104-.202-.195-.531-.273-.986-.755.787-1.68 1.181-2.773 1.181-1.062 0-1.928-.302-2.598-.908-.671-.605-1.006-1.354-1.006-2.246 0-1.126.417-1.989 1.25-2.588.84-.605 2.038-.908 3.594-.908h1.455v-.693c0-.547-.153-.984-.459-1.309-.306-.332-.772-.498-1.397-.498-.54 0-.983.137-1.328.41-.345.267-.517.609-.517 1.025h-2.373c0-.579.192-1.119.576-1.621.384-.507.905-.905 1.562-1.191.664-.286 1.403-.43 2.217-.43 1.237 0 2.223.313 2.959.938.736.618 1.113 1.491 1.133 2.617v4.766c0 .95.133 1.709.4 2.275v.166zm-2.607-1.709c.469 0 .908-.114 1.318-.342.417-.228.73-.534.938-.918v-1.992h-1.279c-.879 0-1.54.153-1.983.459s-.664.739-.664 1.299c0 .456.15.82.449 1.094.306.267.713.4 1.221.4zm11.455.01c.593 0 1.084-.173 1.475-.518.39-.345.599-.771.625-1.279h2.236c-.026.657-.231 1.273-.615 1.846-.384.566-.905 1.015-1.563 1.347-.657.332-1.367.498-2.129.498-1.477 0-2.649-.478-3.515-1.435s-1.299-2.279-1.299-3.965v-.244c0-1.608.43-2.894 1.289-3.858.859-.97 2.031-1.455 3.516-1.455 1.256 0 2.278.368 3.066 1.104.794.729 1.211 1.689 1.25 2.881h-2.236c-.026-.606-.235-1.104-.625-1.494-.384-.391-.876-.586-1.475-.586-.768 0-1.361.28-1.777.839-.417.554-.629 1.397-.635 2.53v.381c0 1.145.205 2.002.615 2.568.417.56 1.016.84 1.797.84zm9.561-2.832-1.055 1.084v3.447h-2.373v-15h2.373v8.652l.742-.927 2.92-3.291h2.852l-3.926 4.404 4.346 6.162h-2.745z" fill="#fff"/></svg>