<svg fill="none" height="212" viewBox="0 0 489 212" width="489" xmlns="http://www.w3.org/2000/svg"><rect fill="#ff871f" height="66" rx="9" width="321" x="166" y="73"/><path d="m315.494 109.689h-5.508l-1.152 3.311h-2.569l5.371-14.2188h2.217l5.381 14.2188h-2.578zm-4.815-1.992h4.121l-2.06-5.898zm12.647.02v5.283h-2.471v-14.2188h5.44c1.588 0 2.848.4135 3.779 1.2398.937.827 1.406 1.921 1.406 3.282 0 1.393-.459 2.477-1.377 3.252-.911.774-2.191 1.162-3.838 1.162zm0-1.983h2.969c.878 0 1.549-.205 2.011-.615.462-.417.694-1.015.694-1.797 0-.768-.235-1.38-.704-1.836-.468-.462-1.113-.7-1.933-.713h-3.037zm12.929 7.266h-2.46v-14.2188h2.46zm8.731-2.871c0-.423-.176-.746-.527-.967-.345-.221-.922-.417-1.729-.586s-1.481-.384-2.021-.644c-1.185-.573-1.778-1.403-1.778-2.491 0-.911.384-1.673 1.153-2.285.768-.612 1.744-.918 2.929-.918 1.263 0 2.282.313 3.057.938.781.625 1.172 1.435 1.172 2.431h-2.373c0-.455-.17-.833-.508-1.132-.339-.306-.788-.459-1.348-.459-.521 0-.947.12-1.279.361-.326.241-.488.563-.488.967 0 .364.153.648.459.849.306.202.924.407 1.855.616.931.201 1.66.446 2.188.732.534.28.927.619 1.181 1.016.261.397.391.879.391 1.445 0 .95-.394 1.722-1.182 2.314-.787.586-1.819.879-3.095.879-.866 0-1.638-.156-2.315-.468-.677-.313-1.204-.743-1.582-1.289-.378-.547-.566-1.137-.566-1.768h2.304c.033.56.245.993.635 1.299.391.299.908.449 1.553.449.625 0 1.1-.117 1.426-.352.325-.24.488-.553.488-.937z" fill="#000"/><rect fill="#00f5c4" height="66" rx="9" width="323" x="166"/><path d="m287.676 25.7812h2.461v9.9708c0 1.3606-.427 2.4414-1.28 3.2421-.846.8008-1.966 1.2012-3.359 1.2012-1.484 0-2.63-.3743-3.437-1.123-.808-.7487-1.211-1.7904-1.211-3.125h2.461c0 .7552.185 1.3248.556 1.7089.378.3777.921.5665 1.631.5665.664 0 1.191-.2181 1.582-.6543.397-.4427.596-1.0515.596-1.8262zm11.377 14.2188c-.104-.2018-.196-.5306-.274-.9863-.755.7877-1.679 1.1816-2.773 1.1816-1.061 0-1.927-.3027-2.598-.9082-.67-.6055-1.006-1.3542-1.006-2.2461 0-1.1263.417-1.9889 1.25-2.5879.84-.6054 2.038-.9082 3.594-.9082h1.455v-.6933c0-.5469-.153-.9831-.459-1.3086-.306-.3321-.771-.4981-1.396-.4981-.541 0-.983.1367-1.328.4102-.345.2669-.518.6087-.518 1.0254h-2.373c0-.5795.192-1.1198.576-1.6211.384-.5078.905-.905 1.563-1.1914.664-.2865 1.403-.4297 2.216-.4297 1.237 0 2.224.3125 2.959.9375.736.6185 1.114 1.4909 1.133 2.6172v4.7656c0 .9505.134 1.709.401 2.2754v.166zm-2.608-1.709c.469 0 .909-.1139 1.319-.3418.416-.2278.729-.5338.937-.918v-1.9921h-1.279c-.879 0-1.54.153-1.983.4589-.442.306-.664.739-.664 1.2989 0 .4557.15.8203.45 1.0937.306.267.713.4004 1.22.4004zm10.684-1.2988 2.236-7.5586h2.451l-3.662 10.5664h-2.06l-3.692-10.5664h2.461zm12.334 3.0078c-.104-.2018-.195-.5306-.274-.9863-.755.7877-1.679 1.1816-2.773 1.1816-1.061 0-1.927-.3027-2.598-.9082-.67-.6055-1.006-1.3542-1.006-2.2461 0-1.1263.417-1.9889 1.25-2.5879.84-.6054 2.038-.9082 3.594-.9082h1.455v-.6933c0-.5469-.153-.9831-.459-1.3086-.306-.3321-.771-.4981-1.396-.4981-.541 0-.983.1367-1.328.4102-.345.2669-.518.6087-.518 1.0254h-2.373c0-.5795.192-1.1198.576-1.6211.384-.5078.905-.905 1.563-1.1914.664-.2865 1.403-.4297 2.217-.4297 1.237 0 2.223.3125 2.959.9375.735.6185 1.113 1.4909 1.132 2.6172v4.7656c0 .9505.134 1.709.401 2.2754v.166zm-2.608-1.709c.469 0 .909-.1139 1.319-.3418.416-.2278.729-.5338.937-.918v-1.9921h-1.279c-.879 0-1.54.153-1.982.4589-.443.306-.664.739-.664 1.2989 0 .4557.149.8203.449 1.0937.306.267.713.4004 1.22.4004zm14.776-1.9531c0-.625-.221-1.1068-.664-1.4453-.436-.3386-1.227-.6804-2.373-1.0254-1.146-.3451-2.058-.7292-2.735-1.1524-1.295-.8138-1.943-1.875-1.943-3.1836 0-1.1458.466-2.0898 1.396-2.832.938-.7422 2.152-1.1133 3.643-1.1133.99 0 1.872.1823 2.647.5469.774.3646 1.383.8854 1.826 1.5625.442.6706.664 1.416.664 2.2363h-2.461c0-.7421-.235-1.3216-.703-1.7382-.463-.4232-1.127-.6348-1.992-.6348-.808 0-1.436.1725-1.885.5176-.443.345-.664.8268-.664 1.4453 0 .5208.241.957.722 1.3086.482.345 1.276.6836 2.383 1.0156 1.107.3255 1.996.6999 2.666 1.1231.671.4166 1.162.8984 1.475 1.4453.312.5403.469 1.1751.469 1.9043 0 1.1849-.456 2.1289-1.368 2.832-.905.6966-2.135 1.0449-3.691 1.0449-1.029 0-1.976-.1888-2.842-.5664-.859-.3841-1.53-.9115-2.012-1.582-.475-.6706-.712-1.4518-.712-2.3438h2.47c0 .8073.267 1.4323.801 1.875s1.299.6641 2.295.6641c.859 0 1.504-.1725 1.934-.5176.436-.3516.654-.8138.654-1.3867zm8.75 1.9629c.592 0 1.084-.1725 1.474-.5176.391-.345.599-.7715.625-1.2793h2.237c-.026.6576-.231 1.2728-.615 1.8457-.385.5664-.905 1.0156-1.563 1.3477-.657.332-1.367.498-2.129.498-1.478 0-2.65-.4785-3.515-1.4355-.866-.9571-1.299-2.2787-1.299-3.9649v-.2441c0-1.6081.429-2.8939 1.289-3.8574.859-.9701 2.031-1.4551 3.515-1.4551 1.257 0 2.279.3678 3.067 1.1035.794.7292 1.211 1.6894 1.25 2.8809h-2.237c-.026-.6055-.234-1.1036-.625-1.4942-.384-.3906-.875-.5859-1.474-.5859-.768 0-1.361.2799-1.777.8398-.417.5534-.629 1.3965-.635 2.5293v.3809c0 1.1458.205 2.0019.615 2.5683.417.5599 1.016.8399 1.797.8399zm11.66-6.6992c-.312-.0521-.635-.0782-.967-.0782-1.087 0-1.819.4167-2.197 1.25v7.2266h-2.373v-10.5664h2.266l.058 1.1816c.573-.9179 1.367-1.3769 2.383-1.3769.338 0 .618.0456.84.1367zm4.023 8.3984h-2.373v-10.5664h2.373zm-2.519-13.3105c0-.3646.114-.6674.342-.9083.234-.2408.566-.3613.996-.3613.429 0 .762.1205.996.3613.234.2409.351.5437.351.9083 0 .358-.117.6575-.351.8984-.234.2344-.567.3516-.996.3516-.43 0-.762-.1172-.996-.3516-.228-.2409-.342-.5404-.342-.8984zm14.365 8.1347c0 1.6341-.371 2.9395-1.113 3.916-.742.9701-1.738 1.4551-2.988 1.4551-1.159 0-2.087-.3808-2.784-1.1426v5.0098h-2.373v-14.6289h2.188l.098 1.0742c.696-.8463 1.643-1.2695 2.841-1.2695 1.289 0 2.298.4818 3.028 1.4453.735.957 1.103 2.2884 1.103 3.9941zm-2.363-.2051c0-1.0546-.212-1.8912-.635-2.5097-.417-.6185-1.016-.9278-1.797-.9278-.97 0-1.666.4004-2.09 1.2012v4.6875c.43.8203 1.133 1.2305 2.11 1.2305.755 0 1.344-.3028 1.767-.9082.43-.612.645-1.5365.645-2.7735zm7.353-7.7539v2.5684h1.866v1.7578h-1.866v5.8984c0 .4037.079.6967.235.879.163.1757.449.2636.859.2636.274 0 .55-.0325.83-.0976v1.8359c-.54.1497-1.061.2246-1.562.2246-1.823 0-2.735-1.0058-2.735-3.0176v-5.9863h-1.738v-1.7578h1.738v-2.5684z" fill="#000"/><rect fill="#e88da3" height="66" rx="9" width="326" x="163" y="146"/><path d="m297.841 171.781 4.101 10.899 4.092-10.899h3.193v14.219h-2.461v-4.688l.245-6.269-4.2 10.957h-1.767l-4.19-10.947.244 6.259v4.688h-2.461v-14.219zm20.4 14.219c-.104-.202-.195-.531-.273-.986-.756.787-1.68 1.181-2.774 1.181-1.061 0-1.927-.302-2.598-.908-.67-.605-1.005-1.354-1.005-2.246 0-1.126.416-1.989 1.25-2.588.839-.605 2.037-.908 3.593-.908h1.455v-.693c0-.547-.153-.984-.459-1.309-.306-.332-.771-.498-1.396-.498-.54 0-.983.137-1.328.41-.345.267-.518.609-.518 1.025h-2.373c0-.579.192-1.119.576-1.621.385-.507.905-.905 1.563-1.191.664-.286 1.403-.43 2.217-.43 1.237 0 2.223.313 2.959.938.735.618 1.113 1.491 1.132 2.617v4.766c0 .95.134 1.709.401 2.275v.166zm-2.607-1.709c.468 0 .908-.114 1.318-.342.417-.228.729-.534.937-.918v-1.992h-1.279c-.879 0-1.54.153-1.982.459-.443.306-.664.739-.664 1.299 0 .456.149.82.449 1.094.306.267.713.4 1.221.4zm12.646-6.689c-.312-.053-.635-.079-.967-.079-1.087 0-1.819.417-2.197 1.25v7.227h-2.373v-10.566h2.266l.058 1.181c.573-.918 1.367-1.377 2.383-1.377.339 0 .618.046.84.137zm4.932 3.867-1.055 1.084v3.447h-2.373v-15h2.373v8.652l.742-.927 2.92-3.291h2.852l-3.926 4.404 4.346 6.162h-2.745zm13.418 3.496c-.697.82-1.687 1.23-2.969 1.23-1.146 0-2.015-.335-2.607-1.006-.586-.67-.879-1.64-.879-2.91v-6.845h2.373v6.816c0 1.341.556 2.012 1.67 2.012 1.152 0 1.93-.414 2.334-1.241v-7.587h2.373v10.566h-2.237zm13.965-4.141c0 1.634-.372 2.94-1.114 3.916-.742.97-1.738 1.455-2.988 1.455-1.159 0-2.087-.381-2.783-1.142v5.009h-2.373v-14.628h2.187l.098 1.074c.696-.847 1.644-1.27 2.842-1.27 1.289 0 2.298.482 3.027 1.446.736.957 1.104 2.288 1.104 3.994zm-2.364-.205c0-1.055-.211-1.891-.635-2.51-.416-.618-1.015-.927-1.796-.927-.97 0-1.667.4-2.09 1.201v4.687c.429.821 1.133 1.231 2.109 1.231.755 0 1.345-.303 1.768-.908.429-.612.644-1.537.644-2.774z" fill="#000"/><rect fill="#000" height="212" rx="9" width="160"/><path d="m43.7324 97.7812h2.461v9.9708c0 1.361-.4265 2.441-1.2793 3.242-.8464.801-1.9662 1.201-3.3594 1.201-1.4844 0-2.6302-.374-3.4375-1.123-.8073-.748-1.211-1.79-1.211-3.125h2.461c0 .755.1855 1.325.5566 1.709.3776.378.9213.567 1.6309.567.6641 0 1.1914-.218 1.582-.655.3972-.442.5957-1.051.5957-1.826zm11.7285 14.2188c-.1041-.202-.1953-.531-.2734-.986-.7552.787-1.6797 1.181-2.7734 1.181-1.0612 0-1.9271-.302-2.5977-.908-.6706-.605-1.0059-1.354-1.0059-2.246 0-1.126.4167-1.989 1.25-2.588.8399-.605 2.0378-.908 3.5938-.908h1.4551v-.693c0-.547-.153-.984-.459-1.309-.306-.332-.7715-.498-1.3965-.498-.5404 0-.9831.137-1.3281.41-.3451.267-.5176.609-.5176 1.025h-2.373c0-.579.192-1.119.5761-1.621.3841-.507.905-.905 1.5625-1.191.6641-.286 1.403-.43 2.2168-.43 1.237 0 2.2233.313 2.959.938.7357.618 1.1133 1.491 1.1328 2.617v4.766c0 .95.1335 1.709.4004 2.275v.166zm-2.6074-1.709c.4688 0 .9082-.114 1.3184-.342.4166-.228.7291-.534.9375-.918v-1.992h-1.2793c-.8789 0-1.5397.153-1.9824.459-.4428.306-.6641.739-.6641 1.299 0 .456.1497.82.4492 1.094.306.267.7129.4 1.2207.4zm9.3457-8.857.0684 1.103c.7422-.866 1.7578-1.299 3.0469-1.299 1.4127 0 2.3795.541 2.9003 1.621.7683-1.08 1.849-1.621 3.2422-1.621 1.1654 0 2.0313.323 2.5977.967.5729.645.8659 1.595.8789 2.852v6.943h-2.3731v-6.875c0-.671-.1464-1.162-.4394-1.475-.293-.312-.778-.468-1.4551-.468-.5403 0-.9831.146-1.3281.439-.3386.287-.5762.664-.7129 1.133l.0098 7.246h-2.3731v-6.953c-.0325-1.244-.6673-1.865-1.9043-1.865-.9505 0-1.6243.387-2.0215 1.162v7.656h-2.373v-10.566zm21.0938 7.695c0-.423-.1758-.746-.5274-.967-.345-.221-.9212-.417-1.7285-.586s-1.4811-.384-2.0215-.644c-1.1849-.573-1.7773-1.403-1.7773-2.491 0-.911.3841-1.673 1.1523-2.285.7683-.612 1.7448-.918 2.9297-.918 1.263 0 2.2819.313 3.0567.938.7812.625 1.1718 1.435 1.1718 2.431h-2.373c0-.455-.1693-.833-.5078-1.132-.3386-.306-.7878-.459-1.3477-.459-.5208 0-.9473.12-1.2793.361-.3255.241-.4883.563-.4883.967 0 .364.153.648.459.849.306.202.9245.407 1.8555.616.931.201 1.6601.446 2.1875.732.5338.28.9277.619 1.1816 1.016.2604.397.3907.879.3907 1.445 0 .95-.3939 1.722-1.1817 2.314-.7877.586-1.8196.879-3.0957.879-.8659 0-1.6374-.156-2.3144-.468-.6771-.313-1.2045-.743-1.5821-1.289-.3776-.547-.5664-1.137-.5664-1.768h2.3047c.0326.56.2441.993.6348 1.299.3906.299.9082.449 1.5527.449.625 0 1.1003-.117 1.4258-.352.3255-.24.4883-.553.4883-.937zm7.3828-10.2638v2.5688h1.8652v1.757h-1.8652v5.899c0 .403.0781.696.2344.879.1627.176.4492.263.8593.263.2735 0 .5502-.032.8301-.097v1.836c-.5404.149-1.0612.224-1.5625.224-1.8229 0-2.7344-1.006-2.7344-3.017v-5.987h-1.7382v-1.757h1.7382v-2.5688zm10.0002 13.1348c-.104-.202-.196-.531-.274-.986-.7549.787-1.6793 1.181-2.7731 1.181-1.0612 0-1.9271-.302-2.5977-.908-.6705-.605-1.0058-1.354-1.0058-2.246 0-1.126.4167-1.989 1.25-2.588.8398-.605 2.0378-.908 3.5937-.908h1.4549v-.693c0-.547-.153-.984-.4588-1.309-.306-.332-.7714-.498-1.3964-.498-.5404 0-.9831.137-1.3282.41-.345.267-.5176.609-.5176 1.025h-2.373c0-.579.1921-1.119.5762-1.621.3841-.507.9049-.905 1.5625-1.191.664-.286 1.403-.43 2.2168-.43 1.2369 0 2.2235.313 2.9585.938.736.618 1.114 1.491 1.133 2.617v4.766c0 .95.134 1.709.401 2.275v.166zm-2.6076-1.709c.4687 0 .9082-.114 1.3183-.342.4167-.228.7293-.534.9373-.918v-1.992h-1.2791c-.8789 0-1.5397.153-1.9824.459s-.6641.739-.6641 1.299c0 .456.1498.82.4493 1.094.3059.267.7128.4 1.2207.4zm11.4546.01c.593 0 1.084-.173 1.475-.518s.599-.771.625-1.279h2.236c-.026.657-.231 1.273-.615 1.846-.384.566-.905 1.015-1.562 1.347-.658.332-1.368.498-2.129.498-1.478 0-2.65-.478-3.516-1.435s-1.299-2.279-1.299-3.965v-.244c0-1.608.43-2.894 1.289-3.858.86-.97 2.032-1.455 3.516-1.455 1.256 0 2.279.368 3.066 1.104.795.729 1.211 1.689 1.25 2.881h-2.236c-.026-.606-.234-1.104-.625-1.494-.384-.391-.876-.586-1.475-.586-.768 0-1.36.28-1.777.839-.417.554-.628 1.397-.635 2.53v.381c0 1.145.205 2.002.616 2.568.416.56 1.015.84 1.796.84zm9.561-2.832-1.055 1.084v3.447h-2.373v-15h2.373v8.652l.742-.927 2.92-3.291h2.852l-3.926 4.404 4.346 6.162h-2.744z" fill="#fff"/></svg>