<?xml version="1.0" standalone="no"?>
<!DOCTYPE svg PUBLIC "-//W3C//DTD SVG 20010904//EN"
 "http://www.w3.org/TR/2001/REC-SVG-20010904/DTD/svg10.dtd">
<svg version="1.0" xmlns="http://www.w3.org/2000/svg"
 width="16.000000pt" height="16.000000pt" viewBox="0 0 16.000000 16.000000"
 preserveAspectRatio="xMidYMid meet">
<metadata>
Created by potrace 1.11, written by Peter Selinger 2001-2013
</metadata>
<g transform="translate(0.000000,16.000000) scale(0.003125,-0.003125)"
fill="#000000" stroke="none">
<path d="M2320 5109 c-491 -47 -982 -247 -1365 -556 -600 -484 -955 -1225
-955 -1993 0 -577 205 -1156 567 -1605 484 -600 1225 -955 1993 -955 577 0
1156 205 1605 567 600 484 955 1225 955 1993 0 577 -205 1156 -567 1605 -436
540 -1072 880 -1768 945 -125 11 -340 11 -465 -1z m-1132 -1821 c15 -15 17
-920 2 -1051 -25 -214 -124 -349 -297 -406 -71 -24 -232 -28 -318 -7 l-50 11
3 60 c6 108 13 113 124 94 147 -24 246 22 301 139 l32 67 3 545 c2 410 6 546
15 552 20 13 172 9 185 -4z m949 0 c19 -25 583 -1449 578 -1459 -10 -15 -152
-11 -184 5 -19 10 -34 31 -48 68 -78 205 -117 305 -126 316 -14 18 -630 18
-644 0 -6 -7 -22 -42 -36 -78 -66 -172 -108 -276 -115 -286 -15 -24 -54 -34
-126 -34 -41 0 -77 4 -81 9 -5 10 559 1434 578 1459 6 8 40 12 102 12 62 0 96
-4 102 -12z m977 -9 c16 -17 510 -895 541 -961 l22 -47 22 47 c58 121 511 935
532 957 14 15 36 20 89 23 38 2 81 1 95 -2 l25 -6 0 -730 0 -730 -23 -5 c-12
-3 -52 -5 -87 -3 l-65 3 -5 570 -5 570 -21 -35 c-12 -19 -77 -136 -144 -260
-261 -479 -332 -605 -348 -617 -9 -7 -39 -13 -67 -13 -41 0 -56 5 -72 23 -11
12 -130 220 -264 461 l-244 439 -3 -566 -2 -567 -23 -5 c-12 -4 -52 -5 -87 -3
l-65 3 -3 729 c-2 577 1 732 10 738 21 14 177 4 192 -13z"/>
<path d="M2025 3048 c-13 -38 -85 -230 -164 -433 l-89 -230 129 -3 c70 -1 188
-1 262 0 l135 3 -49 125 c-27 69 -60 154 -74 190 -14 36 -45 116 -69 177 -24
62 -47 126 -51 143 -7 33 -23 48 -30 28z"/>
</g>
</svg>
