<?xml version="1.0" standalone="no"?>
<!DOCTYPE svg PUBLIC "-//W3C//DTD SVG 20010904//EN"
 "http://www.w3.org/TR/2001/REC-SVG-20010904/DTD/svg10.dtd">
<svg version="1.0" xmlns="http://www.w3.org/2000/svg"
 width="400.000000pt" height="400.000000pt" viewBox="0 0 400.000000 400.000000"
 preserveAspectRatio="xMidYMid meet">
<metadata>
Created by potrace 1.11, written by Peter Selinger 2001-2013
</metadata>
<g transform="translate(0.000000,400.000000) scale(0.100000,-0.100000)"
fill="#000000" stroke="none">
<path d="M0 2000 l0 -2000 2000 0 2000 0 0 2000 0 2000 -2000 0 -2000 0 0
-2000z m2366 1694 c264 -54 574 -230 574 -324 0 -14 -26 -50 -68 -94 l-67 -71
-187 -485 c-103 -267 -334 -867 -513 -1335 -180 -467 -337 -868 -350 -890 -69
-119 -226 -197 -360 -179 -128 17 -247 100 -302 212 -25 52 -28 67 -28 162 l1
105 514 1330 515 1330 1 113 c0 99 3 114 20 127 26 20 153 19 250 -1z"/>
<path d="M2262 3618 c-19 -19 -15 -32 23 -69 88 -88 388 -191 468 -160 37 14
34 32 -15 76 -107 97 -429 200 -476 153z"/>
<path d="M2391 2464 c-2 -20 -173 -162 -228 -189 -30 -14 -105 -39 -166 -55
-144 -37 -157 -42 -221 -89 -105 -78 -131 -118 -211 -326 -440 -1146 -407
-1054 -403 -1125 8 -151 121 -259 268 -260 107 0 211 65 248 155 105 262 721
1882 718 1890 -3 6 -5 6 -5 -1z m-601 -504 c0 -25 -29 -38 -41 -19 -15 25 -10
39 16 39 18 0 25 -5 25 -20z m194 -183 c38 -27 -2 -95 -41 -71 -25 16 -29 55
-7 71 10 7 21 13 24 13 3 0 14 -6 24 -13z m-258 -234 c31 -34 26 -78 -12 -111
-51 -44 -124 -6 -124 63 0 69 88 100 136 48z m-166 -177 c19 -23 8 -61 -18
-64 -13 -2 -30 2 -38 8 -14 13 -19 51 -7 63 12 12 50 7 63 -7z m169 -339 c8
-10 7 -19 -4 -33 -13 -18 -15 -18 -31 -2 -14 14 -15 20 -4 32 15 19 24 20 39
3z"/>
</g>
</svg>
