<svg fill="none" height="66" viewBox="0 0 489 66" width="489" xmlns="http://www.w3.org/2000/svg"><rect fill="#e88da3" height="66" rx="9" width="326" x="163"/><path d="m299.841 25.7812 4.101 10.8985 4.092-10.8985h3.193v14.2188h-2.461v-4.6875l.245-6.2695-4.2 10.957h-1.767l-4.19-10.9473.244 6.2598v4.6875h-2.461v-14.2188zm20.4 14.2188c-.104-.2018-.195-.5306-.273-.9863-.756.7877-1.68 1.1816-2.774 1.1816-1.061 0-1.927-.3027-2.598-.9082-.67-.6055-1.005-1.3542-1.005-2.2461 0-1.1263.416-1.9889 1.25-2.5879.839-.6054 2.037-.9082 3.593-.9082h1.455v-.6933c0-.5469-.153-.9831-.459-1.3086-.306-.3321-.771-.4981-1.396-.4981-.54 0-.983.1367-1.328.4102-.345.2669-.518.6087-.518 1.0254h-2.373c0-.5795.192-1.1198.576-1.6211.385-.5078.905-.905 1.563-1.1914.664-.2865 1.403-.4297 2.217-.4297 1.237 0 2.223.3125 2.959.9375.735.6185 1.113 1.4909 1.132 2.6172v4.7656c0 .9505.134 1.709.401 2.2754v.166zm-2.607-1.709c.468 0 .908-.1139 1.318-.3418.417-.2278.729-.5338.937-.918v-1.9921h-1.279c-.879 0-1.54.153-1.982.4589-.443.306-.664.739-.664 1.2989 0 .4557.149.8203.449 1.0937.306.267.713.4004 1.221.4004zm12.646-6.6894c-.312-.0521-.635-.0782-.967-.0782-1.087 0-1.819.4167-2.197 1.25v7.2266h-2.373v-10.5664h2.266l.058 1.1816c.573-.9179 1.367-1.3769 2.383-1.3769.339 0 .618.0456.84.1367zm4.932 3.8672-1.055 1.0839v3.4473h-2.373v-15h2.373v8.6523l.742-.9277 2.92-3.291h2.852l-3.926 4.4043 4.346 6.1621h-2.745zm13.418 3.496c-.697.8204-1.687 1.2305-2.969 1.2305-1.146 0-2.015-.3353-2.607-1.0058-.586-.6706-.879-1.6407-.879-2.9102v-6.8457h2.373v6.8164c0 1.3411.556 2.0117 1.67 2.0117 1.152 0 1.93-.4134 2.334-1.2402v-7.5879h2.373v10.5664h-2.237zm13.965-4.1406c0 1.6341-.372 2.9395-1.114 3.916-.742.9701-1.738 1.4551-2.988 1.4551-1.159 0-2.087-.3808-2.783-1.1426v5.0098h-2.373v-14.6289h2.187l.098 1.0742c.696-.8463 1.644-1.2695 2.842-1.2695 1.289 0 2.298.4818 3.027 1.4453.736.957 1.104 2.2884 1.104 3.9941zm-2.364-.2051c0-1.0546-.211-1.8912-.635-2.5097-.416-.6185-1.015-.9278-1.796-.9278-.97 0-1.667.4004-2.09 1.2012v4.6875c.429.8203 1.133 1.2305 2.109 1.2305.755 0 1.345-.3028 1.768-.9082.429-.612.644-1.5365.644-2.7735z" fill="#000"/><rect fill="#000" height="66" rx="9" width="160"/><path d="m52.0234 24.7812 4.1016 10.8985 4.0918-10.8985h3.1934v14.2188h-2.461v-4.6875l.2442-6.2695-4.1993 10.957h-1.7675l-4.1895-10.9473.2441 6.2598v4.6875h-2.4609v-14.2188zm20.3614 11.3477c0-.4232-.1758-.7454-.5274-.9668-.345-.2213-.9212-.4167-1.7285-.5859-.8073-.1693-1.4811-.3841-2.0215-.6446-1.1849-.5729-1.7773-1.403-1.7773-2.4902 0-.9115.3841-1.6732 1.1523-2.2852.7683-.6119 1.7448-.9179 2.9297-.9179 1.263 0 2.2819.3125 3.0567.9375.7812.625 1.1718 1.4355 1.1718 2.4316h-2.373c0-.4557-.1693-.8333-.5078-1.1328-.3386-.306-.7878-.459-1.3477-.459-.5208 0-.9473.1205-1.2793.3614-.3255.2408-.4883.5631-.4883.9668 0 .3645.153.6477.459.8496.306.2018.9245.4069 1.8555.6152.931.2018 1.6601.446 2.1875.7324.5338.28.9277.6185 1.1816 1.0156.2604.3972.3907.8789.3907 1.4454 0 .9505-.3939 1.722-1.1817 2.3144-.7878.5859-1.8197.8789-3.0957.8789-.8659 0-1.6374-.1562-2.3144-.4687-.6771-.3125-1.2045-.7422-1.5821-1.2891s-.5664-1.1361-.5664-1.7676h2.3047c.0326.5599.2441.9929.6348 1.2989.3906.2994.9082.4492 1.5527.4492.625 0 1.1003-.1172 1.4258-.3516.3255-.2409.4883-.5534.4883-.9375zm7.3828-10.2637v2.5684h1.8652v1.7578h-1.8652v5.8984c0 .4037.0781.6967.2344.879.1627.1757.4492.2636.8593.2636.2735 0 .5502-.0325.8301-.0976v1.8359c-.5404.1497-1.0612.2246-1.5625.2246-1.8229 0-2.7344-1.0058-2.7344-3.0176v-5.9863h-1.7383v-1.7578h1.7383v-2.5684zm10 13.1348c-.1042-.2018-.1953-.5306-.2735-.9863-.7552.7877-1.6796 1.1816-2.7734 1.1816-1.0612 0-1.9271-.3027-2.5977-.9082-.6705-.6055-1.0058-1.3542-1.0058-2.2461 0-1.1263.4167-1.9889 1.25-2.5879.8398-.6054 2.0377-.9082 3.5937-.9082h1.4551v-.6933c0-.5469-.153-.9831-.459-1.3086-.306-.3321-.7715-.4981-1.3965-.4981-.5403 0-.983.1367-1.3281.4102-.345.2669-.5176.6087-.5176 1.0254h-2.373c0-.5795.1921-1.1198.5762-1.6211.3841-.5078.9049-.905 1.5625-1.1914.664-.2865 1.403-.4297 2.2168-.4297 1.2369 0 2.2233.3125 2.9589.9375.7357.6185 1.1133 1.4909 1.1329 2.6172v4.7656c0 .9505.1334 1.709.4004 2.2754v.166zm-2.6074-1.709c.4687 0 .9082-.1139 1.3183-.3418.4167-.2278.7292-.5338.9375-.918v-1.9921h-1.2793c-.8789 0-1.5397.153-1.9824.4589-.4427.306-.6641.739-.6641 1.2989 0 .4557.1498.8203.4493 1.0937.3059.267.7128.4004 1.2207.4004zm11.455.0098c.5925 0 1.084-.1725 1.4748-.5176.39-.345.599-.7715.625-1.2793h2.236c-.026.6576-.231 1.2728-.615 1.8457-.384.5664-.905 1.0156-1.563 1.3477-.657.332-1.3668.498-2.1285.498-1.4778 0-2.6497-.4785-3.5156-1.4355-.8659-.9571-1.2988-2.2787-1.2988-3.9649v-.2441c0-1.6081.4297-2.8939 1.289-3.8574.8594-.9701 2.0313-1.4551 3.5157-1.4551 1.2565 0 2.2782.3678 3.0662 1.1035.794.7292 1.211 1.6894 1.25 2.8809h-2.236c-.026-.6055-.235-1.1036-.625-1.4942-.3843-.3906-.8758-.5859-1.4748-.5859-.7682 0-1.3606.2799-1.7773.8398-.4167.5534-.6283 1.3965-.6348 2.5293v.3809c0 1.1458.2051 2.0019.6153 2.5683.4166.5599 1.0156.8399 1.7968.8399zm9.5608-2.832-1.055 1.0839v3.4473h-2.373v-15h2.373v8.6523l.742-.9277 2.92-3.291h2.852l-3.926 4.4043 4.346 6.1621h-2.744z" fill="#fff"/></svg>