<svg height="38" viewBox="0 0 150 38" width="150" xmlns="http://www.w3.org/2000/svg"><g fill="none" fill-rule="evenodd"><rect fill="#fff" height="37.44" rx="8.96" stroke="#9aa0a6" stroke-width=".56" width="149.44" x=".28" y=".28"/><g transform="translate(6 6)"><path d="m0 0h27v27h-27z"/><g fill-rule="nonzero"><path d="m2.671875 11.109375c-.855 0-1.546875.691875-1.546875 1.546875v1.6875c0 .855.691875 1.546875 1.546875 1.546875s1.546875-.691875 1.546875-1.546875v-1.6875c0-.855-.691875-1.546875-1.546875-1.546875z" fill="#0066d9"/><path d="m24.328125 11.109375c-.855 0-1.546875.691875-1.546875 1.546875v1.6875c0 .855.691875 1.546875 1.546875 1.546875s1.546875-.691875 1.546875-1.546875v-1.6875c0-.855-.691875-1.546875-1.546875-1.546875z" fill="#4285f4"/><path d="m8.015625 16.171875c-.855 0-1.546875.691875-1.546875 1.546875v1.6875c0 .855.691875 1.546875 1.546875 1.546875s1.546875-.691875 1.546875-1.546875v-1.6875c0-.855-.691875-1.546875-1.546875-1.546875z" fill="#ea4335"/><path d="m8.015625 6.046875c-.855 0-1.546875.691875-1.546875 1.546875v5.5195312h.00140625c.0196875.838125.703125 1.5117188 1.54546875 1.5117188s1.52578125-.6735938 1.54546875-1.5117188h.00140625v-5.5195312c0-.855-.691875-1.546875-1.546875-1.546875z" fill="#ea4335"/><path d="m18.984375 6.046875c-.855 0-1.546875.691875-1.546875 1.546875v1.6875c0 .855.691875 1.546875 1.546875 1.546875s1.546875-.691875 1.546875-1.546875v-1.6875c0-.855-.691875-1.546875-1.546875-1.546875z" fill="#34a853"/><path d="m13.5 1.125c-.855 0-1.546875.691875-1.546875 1.546875v1.6875c0 .855.691875 1.546875 1.546875 1.546875s1.546875-.691875 1.546875-1.546875v-1.6875c0-.855-.691875-1.546875-1.546875-1.546875z" fill="#fab908"/><path d="m13.5 21.09375c-.855 0-1.546875.691875-1.546875 1.546875v1.6875c0 .855.691875 1.546875 1.546875 1.546875s1.546875-.691875 1.546875-1.546875v-1.6875c0-.855-.691875-1.546875-1.546875-1.546875z" fill="#fab908"/><path d="m18.984375 12.375c-.855 0-1.546875.691875-1.546875 1.546875v5.484375c0 .855.691875 1.546875 1.546875 1.546875s1.546875-.691875 1.546875-1.546875v-5.484375c0-.855-.691875-1.546875-1.546875-1.546875z" fill="#34a853"/><path d="m15.046875 9c0-.855-.691875-1.546875-1.546875-1.546875s-1.546875.691875-1.546875 1.546875v3.7504687 1.5004688 3.7490625c0 .855.691875 1.546875 1.546875 1.546875s1.546875-.691875 1.546875-1.546875v-3.7504687-1.4990626z" fill="#fab908"/></g></g><g transform="translate(39 15)"><path d="m0 3.24h101.92v15.68h-101.92z"/><g fill="#3c4043" fill-rule="nonzero"><path d="m50.344 14.06v-4.088h2.198c.56 0 1.078-.126 1.554-.378s.8563333-.60433333 1.141-1.057.427-.96366667.427-1.533-.1423333-1.08033333-.427-1.533-.665-.805-1.141-1.057-.994-.378-1.554-.378h-3.374v10.024zm2.226-5.222h-2.226v-3.668h2.226c.3733333 0 .7023333.08866667.987.266s.5063333.406.665.686.238.574.238.882-.0793333.602-.238.882-.3803333.50866667-.665.686-.6136667.266-.987.266zm7.028 5.446c.7 0 1.33-.168 1.89-.504s.9963333-.7933333 1.309-1.372.469-1.218.469-1.918-.1563333-1.33933333-.469-1.918-.749-1.036-1.309-1.372-1.19-.504-1.89-.504-1.33.168-1.89.504-.9963333.79333333-1.309 1.372-.469 1.218-.469 1.918.1563333 1.3393333.469 1.918.749 1.036 1.309 1.372 1.19.504 1.89.504zm0-1.078c-.4386667 0-.8493333-.1096667-1.232-.329s-.6883333-.5343333-.917-.945-.343-.8913333-.343-1.442c0-.55066667.1143333-1.03133333.343-1.442s.5343333-.72566667.917-.945.7933333-.329 1.232-.329.847.10966667 1.225.329.6813333.53433333.91.945.343.89133333.343 1.442c0 .5506667-.1143333 1.0313333-.343 1.442s-.532.7256667-.91.945-.7863333.329-1.225.329zm7.882 1.078c.5506667 0 1.0406667-.1236667 1.47-.371s.756-.5483333.98-.903h.056v1.05h1.134v-10.024h-1.19v2.954l.056.994h-.056c-.224-.364-.5506667-.66966667-.98-.917s-.9193333-.371-1.47-.371c-.6346667 0-1.211.16333333-1.729.49s-.9263333.77933333-1.225 1.358-.448 1.22733333-.448 1.946c0 .728.1493333 1.379.448 1.953s.707 1.0243333 1.225 1.351 1.0943333.49 1.729.49zm.14-1.078c-.4106667 0-.798-.112-1.162-.336s-.6556667-.5436667-.875-.959-.329-.889-.329-1.421.1096667-1.00566667.329-1.421.511-.735.875-.959.7513333-.336 1.162-.336c.42 0 .8096667.112 1.169.336s.6486667.54133333.868.952.329.88666667.329 1.428c0 .5413333-.1096667 1.0173333-.329 1.428s-.5086667.728-.868.952-.749.336-1.169.336zm8.232 1.078c.7653333 0 1.4163333-.182 1.953-.546s.9263333-.84 1.169-1.428l-1.064-.448c-.1773333.4293333-.448.7606667-.812.994s-.798.35-1.302.35c-.42 0-.812-.1143333-1.176-.343s-.6556667-.5483333-.875-.959-.329-.882-.329-1.414.1096667-1.00333333.329-1.414.511-.73033333.875-.959.756-.343 1.176-.343c.4946667 0 .917.11433333 1.267.343s.6136667.56233333.791 1.001l1.078-.448c-.224-.59733333-.5996667-1.07566667-1.127-1.435s-1.1783333-.539-1.953-.539c-.6906667 0-1.3113333.16333333-1.862.49s-.98.77933333-1.288 1.358-.462 1.22733333-.462 1.946c0 .7186667.154 1.365.462 1.939s.7373333 1.0266667 1.288 1.358 1.1713333.497 1.862.497zm6.426 0c.5133333 0 .9753333-.1213333 1.386-.364s.7186667-.5366667.924-.882h.056v1.022h1.134v-4.522c0-.87733333-.2776667-1.57033333-.833-2.079s-1.3183333-.763-2.289-.763c-.5973333 0-1.141.12133333-1.631.364s-.875.57866667-1.155 1.008l.896.672c.196-.308.462-.54833333.798-.721s.7046667-.259 1.106-.259c.5693333 0 1.0406667.161 1.414.483s.56.749.56 1.281v.434c-.196-.12133333-.4783333-.22866667-.847-.322s-.7676667-.14-1.197-.14c-.868 0-1.5866667.21233333-2.156.637-.5693333.4246667-.854 1.015-.854 1.771 0 .4573333.112.8656667.336 1.225s.5413333.6416667.952.847.8773333.308 1.4.308zm.112-1.05c-.4573333 0-.8353333-.1213333-1.134-.364s-.448-.56-.448-.952c0-.4293333.1656667-.7793333.497-1.05s.8236667-.406 1.477-.406c.364 0 .7093333.0466667 1.036.14s.602.2146667.826.364c0 .4106667-.1026667.7886667-.308 1.134s-.4806667.6206667-.826.826-.7186667.308-1.12.308zm7.266 1.05c.5226667 0 .9986667-.0886667 1.428-.266.4293334-.1773333.77-.4316667 1.022-.763s.378-.7163333.378-1.155c0-.504-.1773333-.931-.532-1.281-.3546666-.35-.882-.6136667-1.582-.791l-1.036-.266c-.4106666-.10266667-.7186666-.23566667-.924-.399-.2053333-.16333333-.308-.37566667-.308-.637 0-.28.147-.511.441-.693s.637-.273 1.029-.273c.812 0 1.3766667.31733333 1.694.952l1.036-.476c-.2053333-.48533333-.553-.86333333-1.043-1.134s-1.0476666-.406-1.673-.406c-.476 0-.9193333.084-1.33.252-.4106666.168-.7396666.40833333-.987.721-.2473333.31266667-.371.67433333-.371 1.085 0 .532.182.966.546 1.302s.8306667.574 1.4.714l.868.224c.5413334.1306667.938.287 1.19.469s.378.4223333.378.721c0 .336-.1586666.595-.476.777-.3173333.182-.7.273-1.148.273-.42 0-.805-.1166667-1.155-.35s-.6136666-.5646667-.791-.994l-1.064.476c.2146667.56.5786667 1.0196667 1.092 1.379.5133334.3593333 1.1526667.539 1.918.539zm6.608-.112c.224 0 .4083334-.014.553-.042.1446667-.028.287-.0746667.427-.14v-1.162c-.252.1586667-.5133333.238-.784.238-.336 0-.5926666-.1026667-.77-.308-.1493333-.1866667-.224-.476-.224-.868v-3.892h1.736v-1.078h-1.736v-2.016h-1.19v2.016h-1.246v1.078h1.246v4.186c0 .336.0466667.6206667.14.854.0933334.2333333.2333334.4386667.42.616.168.1586667.3756667.2846667.623.378.2473334.0933333.5156667.14.805.14zm4.816.112c.522667 0 .998667-.0886667 1.428-.266s.77-.4316667 1.022-.763.378-.7163333.378-1.155c0-.504-.177333-.931-.532-1.281s-.882-.6136667-1.582-.791l-1.036-.266c-.410667-.10266667-.718667-.23566667-.924-.399-.2053333-.16333333-.308-.37566667-.308-.637 0-.28.147-.511.441-.693s.637-.273 1.029-.273c.812 0 1.376667.31733333 1.694.952l1.036-.476c-.205333-.48533333-.553-.86333333-1.043-1.134s-1.047667-.406-1.673-.406c-.476 0-.919333.084-1.33.252-.4106666.168-.7396666.40833333-.987.721-.2473333.31266667-.371.67433333-.371 1.085 0 .532.182.966.546 1.302s.8306667.574 1.4.714l.868.224c.541333.1306667.938.287 1.19.469s.378.4223333.378.721c0 .336-.158667.595-.476.777s-.7.273-1.148.273c-.42 0-.805-.1166667-1.155-.35s-.6136666-.5646667-.791-.994l-1.064.476c.2146667.56.5786667 1.0196667 1.092 1.379.5133334.3593333 1.152667.539 1.918.539z"/><path d="m31.6213333 6.81333333c.882 0 1.5788889.392 1.9382223.82755556h.0544444v-.59888889h1.5462222v6.6095556c0 2.7222222-1.6006666 3.8328888-3.4953333 3.8328888-1.7857778 0-2.8637778-1.1977777-3.2666667-2.1777777l1.4046667-.588c.2504444.5988889.8602222 1.3066666 1.8511111 1.3066666 1.2086667 0 1.96-.7513333 1.96-2.156v-.5335555h-.0544444c-.3593334.4464444-1.0562223.8384444-1.9382223.8384444-1.8402222 0-3.528-1.6115555-3.528-3.6695555 0-2.07977781 1.6877778-3.69133337 3.528-3.69133337zm-15.9522222.10888889c2.0362222 0 3.6913333 1.54622222 3.6913333 3.68044448 0 2.1233333-1.6551111 3.6804444-3.6913333 3.6804444s-3.6913333-1.5571111-3.6913333-3.6804444c0-2.13422226 1.6551111-3.68044448 3.6913333-3.68044448zm8.0577778 0c2.0362222 0 3.6913333 1.54622222 3.6913333 3.68044448 0 2.1233333-1.6551111 3.6804444-3.6913333 3.6804444s-3.6913333-1.5571111-3.6913333-3.6804444c0-2.13422226 1.6551111-3.68044448 3.6913333-3.68044448zm18.4022222 0c1.9055556 0 2.842 1.51355556 3.1468889 2.34111111l.1633333.41377778-4.9217777 2.03622219c.3811111.7295556.9582222 1.1106667 1.7857777 1.1106667.8275556 0 1.3937778-.4028889 1.8184445-1.0126667l1.2522222.8384445c-.4137778.5988889-1.3828889 1.6333333-3.0706667 1.6333333-2.0906666 0-3.6477777-1.6224444-3.6477777-3.6804444 0-2.1886667 1.5788888-3.68044448 3.4735555-3.68044448zm-35.99866666-4.13777778c1.74222223 0 2.98355556.686 3.91999996 1.57888889l-1.11066662 1.09977778c-.66422222-.63155555-1.568-1.12155555-2.80933334-1.12155555-2.29755555 0-4.09422222 1.85111111-4.09422222 4.14866666 0 2.29755558 1.79666667 4.14866668 4.09422222 4.14866668 1.49177778 0 2.34111112-.5988889 2.88555556-1.1433333.44644444-.4464445.74044444-1.0888889.84933333-1.96000004h-3.73488889v-1.55711112h5.25933336c.0544444.28311112.0871111.60977778.0871111.98 0 1.17599996-.3157778 2.62422226-1.3502222 3.64777776-1.0126667 1.0453334-2.29755559 1.6006667-3.99622226 1.6006667-3.15777777 0-5.80377777-2.5588889-5.80377777-5.70577779 0-3.15777778 2.646-5.71666667 5.80377777-5.71666667zm31.74111116.43555556v10.8126667h-1.6115556v-10.8126667zm-22.2024445 5.13955556c-1.1215555 0-2.0797778.90377777-2.0797778 2.23222224 0 1.3175555.9691111 2.2322222 2.0797778 2.2322222s2.0797778-.9146667 2.0797778-2.2322222c0-1.32844447-.9691111-2.23222224-2.0797778-2.23222224zm8.0577778 0c-1.1215556 0-2.0797778.90377777-2.0797778 2.23222224 0 1.3175555.9691111 2.2322222 2.0797778 2.2322222s2.0797778-.9146667 2.0797778-2.2322222c0-1.32844447-.9582223-2.23222224-2.0797778-2.23222224zm8.036-.098c-1.1106667 0-2.0471111.94733333-2.0471111 2.24311114 0 1.2848889.9364444 2.2213333 2.0471111 2.2213333 1.0997778 0 1.9708889-.9255556 1.96-2.2213333 0-1.29577781-.8602222-2.24311114-1.96-2.24311114zm10.4206667.07622222c-.8275556 0-1.9708889.72955555-1.9273334 2.14511112l3.2884445-1.36111112c-.1742223-.46822222-.7186667-.784-1.3611111-.784z"/></g></g><path d="m42.2779687 6.5021875 1.3190626-1.44703125h-1.1025l-.9499219 1.44703125zm2.1065626 7.6978125v-.7727344h-3.6077344v-2.5396875h3.1057031v-.7727343h-3.1057031v-2.30343755h3.5585156v-.77765625h-4.5035156v7.16625zm3.4216874.0984375c.3609375 0 .7030079-.0820312 1.026211-.2460937s.5816015-.3839063.7751953-.6595313c.1935937-.275625.2985937-.5660156.315-.8711719h-.8613281c-.02625.2953125-.1607813.5414063-.4035938.7382813s-.5266406.2953125-.8514844.2953125c-.4692187 0-.8301562-.1657031-1.0828125-.4971094-.2526562-.3314063-.3789843-.8039063-.3789843-1.4175v-.1722656c0-.63.1271484-1.1115235.3814453-1.4445703.2542969-.33304691.6127734-.49957035 1.0754297-.49957035.3445312 0 .6341015.11074219.8687109.33222656.2346094.22148439.3650391.50449219.3912891.84902349h.8613281c-.02625-.5709375-.2370703-1.03523443-.6324609-1.39289068-.3953907-.35765624-.8916797-.53648437-1.4888672-.53648437-.485625 0-.9064453.1115625-1.262461.3346875-.3560156.223125-.6291797.53648437-.8194922.94007815-.1903125.4035937-.2854687.8646093-.2854687 1.3830468v.1525782c0 .84.2141016 1.5019922.6423047 1.9859765.4282031.4839844 1.0048828.7259766 1.730039.7259766zm5.5774688 0c.4790625 0 .903164-.1148437 1.2723047-.3445312.3691406-.2296875.6529687-.5504297.8514843-.9622266.1985157-.4117969.2977735-.8769141.2977735-1.3953516v-.0639843c0-.8334375-.2239453-1.5011719-.671836-2.00320317-.4478906-.50203125-1.034414-.75304688-1.7595703-.75304688-.4692187 0-.8867578.11320313-1.2526172.33960937-.3658593.22640625-.6513281.54796875-.8564062.96468748-.2050781.4167188-.3076172.8859375-.3076172 1.4076563v.0639844c0 .8268749.2239453 1.4913281.6718359 1.9933593.4478907.5020313 1.0327735.7530469 1.7546485.7530469zm0-.7432031c-.459375 0-.8260547-.1788281-1.1000391-.5364844s-.4109765-.8317969-.4109765-1.4224219c0-.6660937.1378125-1.1779687.4134375-1.535625.275625-.35765623.6382031-.53648435 1.0877343-.53648435.459375 0 .8276953.18128906 1.104961.54386715.2772656.3625782.4158984.8358985.4158984 1.419961 0 .6529687-.1361719 1.1607422-.4085156 1.5233203-.2723438.3625781-.6398438.5438672-1.1025.5438672zm5.5430156.7432031c.6857813 0 1.2058594-.2083594 1.5602344-.6250781l.0196875.5266406h.86625v-5.32546875h-.9105469v3.87351565c-.2296875.5184375-.6923437.7776562-1.3879687.7776562-.65625 0-.984375-.4035937-.984375-1.2107812v-3.44039065h-.9105469v3.46500005c.0032812.6464062.1533984 1.1344921.4503515 1.4642578.2969532.3297656.7292579.4946484 1.2969141.4946484zm5.6365312 0c.2264063 0 .459375-.0328125.6989063-.0984375v-.7382812c-.18375.039375-.328125.0590625-.433125.0590625-.2132813 0-.3642188-.0533204-.4528125-.159961-.0885938-.1066406-.1328906-.2666015-.1328906-.4798828v-3.30257813h.9942187v-.70382812h-.9942187v-1.28953125h-.9105469v1.28953125h-.9696094v.70382812h.9696094v3.30257813c0 .4528125.1033594.8022656.3100781 1.0483594.2067188.2460937.5135156.3691406.9203906.3691406zm4.1993438 0c.8925 0 1.561875-.3428906 2.008125-1.0286719l-.5561719-.433125c-.1673437.2165625-.3625781.3904688-.5857031.5217188s-.4954688.196875-.8170313.196875c-.4528125 0-.8260546-.1616016-1.1197265-.4848047s-.4470703-.7473047-.4601953-1.2723047h3.6077343v-.3789844c0-.8498437-.1919531-1.50281248-.5758593-1.95890622-.3839063-.45609375-.9220313-.68414063-1.614375-.68414063-.4232813 0-.816211.11730469-1.1787891.35191406-.3625781.23460938-.6447656.55945313-.8465625.97453129-.2017969.4150781-.3026953.8867578-.3026953 1.415039v.1673438c0 .7940625.2264062 1.428164.6792187 1.9023047.4528125.4741406 1.0401563.7112109 1.7620313.7112109zm1.1664844-3.2484375h-2.6676563c.0590625-.4823438.2132813-.8572266.4626563-1.12464844.249375-.26742187.5578125-.40113281.9253125-.40113281.380625 0 .6825.12714844.905625.38144531.223125.25429684.3478125.61277344.3740625 1.07542964zm3.126375 3.15v-3.78c.2132812-.50859375.6185156-.76289062 1.2157031-.76289062.1607812 0 .3100781.01148437.4478906.03445312v-.8465625c-.091875-.0459375-.2264062-.06890625-.4035937-.06890625-.5479688 0-.97125.23789063-1.2698438.71367188l-.0147656-.61523438h-.8859375v5.32546875zm7.4586093.0984375c.6070313 0 1.1008594-.1435547 1.4814844-.4306641.380625-.2871093.5709375-.6685546.5709375-1.1443359 0-.2854688-.0680859-.5274609-.2042578-.7259766-.1361719-.1985156-.3453516-.3683203-.6275391-.509414-.2821875-.1410938-.6505078-.2625-1.1049609-.3642188-.4544531-.1017187-.7686328-.2083593-.9425391-.3199218-.1739062-.1115626-.2608594-.2772657-.2608594-.4971094 0-.2329688.0935157-.42164065.2805469-.56601565.1870313-.144375.44625-.2165625.7776563-.2165625.3215625 0 .588164.09023438.7998047.27070313.2116406.18046874.3174609.39539062.3174609.64476562h.9154687c0-.485625-.1878515-.88429687-.5635546-1.19601562-.3757032-.31171875-.8654297-.46757813-1.4691797-.46757813-.5742188 0-1.0458985.1509375-1.4150391.4528125s-.5537109.67101563-.5537109 1.10742185c0 .2625.0648047.4889063.194414.6792188.1296094.1903125.3297657.354375.6004688.4921875s.6365625.2559375 1.0975781.354375.7842188.2157422.9696094.351914c.1853906.1361719.2780859.3273047.2780859.5733985 0 .2329687-.1041797.4191797-.312539.5586328-.2083594.1394531-.4848047.2091797-.829336.2091797-.3740625 0-.6751172-.0894141-.903164-.2682422-.2280469-.1788281-.3502735-.4208203-.3666797-.7259766h-.9105469c0 .315.0926953.6078516.2780859.8785547.1853907.2707031.4421485.4815235.7702735.632461s.7054687.2264062 1.1320312.2264062zm5.2181719 0c.6857812 0 1.2058594-.2083594 1.5602344-.6250781l.0196875.5266406h.86625v-5.32546875h-.9105469v3.87351565c-.2296875.5184375-.6923438.7776562-1.3879688.7776562-.65625 0-.984375-.4035937-.984375-1.2107812v-3.44039065h-.9105468v3.46500005c.0032812.6464062.1533984 1.1344921.4503515 1.4642578.2969532.3297656.7292578.4946484 1.2969141.4946484zm4.9917656-.0984375v-3.78c.2132813-.50859375.6185156-.76289062 1.2157031-.76289062.1607813 0 .3100782.01148437.4478907.03445312v-.8465625c-.091875-.0459375-.2264063-.06890625-.4035938-.06890625-.5479687 0-.97125.23789063-1.2698437.71367188l-.0147657-.61523438h-.8859375v5.32546875z" fill="#5f6368" fill-rule="nonzero"/></g></svg>