<svg fill="none" height="124" viewBox="0 0 124 124" width="124" xmlns="http://www.w3.org/2000/svg"><path d="m26.4 78.2c0 7.1-5.8 12.9-12.9 12.9-7.09999 0-12.899994-5.8-12.899994-12.9s5.800004-12.9 12.899994-12.9h12.9z" fill="#e01e5a"/><path d="m32.9 78.2c0-7.1 5.8-12.9 12.9-12.9s12.9 5.8 12.9 12.9v32.3c0 7.1-5.8 12.9-12.9 12.9s-12.9-5.8-12.9-12.9z" fill="#e01e5a"/><path d="m45.8 26.4c-7.1 0-12.9-5.8-12.9-12.9s5.8-12.900002 12.9-12.900002 12.9 5.800002 12.9 12.900002v12.9z" fill="#36c5f0"/><path d="m45.8 32.9c7.1 0 12.9 5.8 12.9 12.9s-5.8 12.9-12.9 12.9h-32.3c-7.09999 0-12.899994-5.8-12.899994-12.9s5.800004-12.9 12.899994-12.9z" fill="#36c5f0"/><path d="m97.6 45.8c0-7.1 5.8-12.9 12.9-12.9s12.9 5.8 12.9 12.9-5.8 12.9-12.9 12.9h-12.9z" fill="#2eb67d"/><path d="m91.1 46.8c0 7.1-5.8 12.9-12.9 12.9s-12.9-5.8-12.9-12.9v-32.3c0-7.1 5.8-12.9 12.9-12.9s12.9 5.8 12.9 12.9z" fill="#2eb67d"/><g fill="#ecb22e"><path d="m78.2 97.6c7.1 0 12.9 5.8 12.9 12.9s-5.8 12.9-12.9 12.9-12.9-5.8-12.9-12.9v-12.9z"/><path d="m78.2 91.1c-7.1 0-12.9-5.8-12.9-12.9s5.8-12.9 12.9-12.9h32.3c7.1 0 12.9 5.8 12.9 12.9s-5.8 12.9-12.9 12.9z"/></g></svg>