<svg class="fill-current hover:opacity-60" xmlns="http://www.w3.org/2000/svg" viewBox="0 0 58 60"><path d="M35.5524 53.6601C35.5524 57.3856 32.2821 60 28.803 60C25.3238 60 21.4968 58.0392 21.4968 53.7255C21.4968 49.4117 24.2801 36.6666 28.455 36.6666C32.6996 36.6666 35.5524 49.2156 35.5524 53.6601Z"/><path d="M28.5246 33.3333C32.406 33.3333 35.5524 30.5351 35.5524 27.0833C35.5524 23.6315 32.406 20.8333 28.5246 20.8333C24.6433 20.8333 21.4968 23.6315 21.4968 27.0833C21.4968 30.5351 24.6433 33.3333 28.5246 33.3333Z"/><path d="M57.0492 26.7805C57.0492 12.0185 44.3175 0 28.5246 0C12.7317 0 0 11.9532 0 26.7805C0 38.0805 7.5138 47.8129 18.0888 51.6667C18.1583 50.6869 18.2975 48.858 18.7149 46.7025C10.7141 43.3059 5.07877 35.6637 5.07877 26.7805C5.07877 14.6313 15.5842 4.76823 28.5246 4.76823C41.465 4.76823 51.9704 14.6313 51.9704 26.7805C51.9704 35.2718 46.8221 42.6528 39.3779 46.3106C39.7953 48.4008 40.004 50.1644 40.0736 51.2748C50.0224 47.1597 57.0492 37.7539 57.0492 26.7805V26.7805Z"/><path d="M46.3008 27.2676C46.3008 17.6818 38.1397 9.99994 28.1112 9.99994C18.0136 9.99994 9.92163 17.7474 9.92163 27.2676C9.92163 33.8333 13.7947 39.6111 19.5351 42.4999C20.0193 40.7929 20.6417 39.0201 21.4717 37.51C17.8753 35.409 15.4546 31.601 15.4546 27.2676C15.4546 20.5706 21.1259 15.1868 28.1804 15.1868C35.2349 15.1868 40.9062 20.5706 40.9062 27.2676C40.9062 31.2727 38.8313 34.8181 35.719 36.9848C36.549 38.4949 37.2406 40.202 37.7939 41.9747C42.8427 38.9545 46.3008 33.505 46.3008 27.2676Z"/></svg>