<svg xmlns="http://www.w3.org/2000/svg" role="img" viewbox="0 0 600 132">
  <title>Jamstatic</title>
  <clipPath id="a">
    <path d="M0 0h600v132H0z"/>
  </clipPath>
  <g clip-path="url(#a)">
    <g fill="#fff">
      <path d="M160.02 40.56v51c0 7.08-1.62 12.78-4.86 17.22-3.24 4.38-8.04 7.62-14.4 9.66l-7.62-14.94c2.64-1.14 4.86-2.7 6.66-4.68s2.7-4.44 2.7-7.44v-36.6h-8.46V40.56zM197.94 42.18c2.58 1.5 4.5 3.6 5.76 6.3v-7.92h17.52v50.1H203.7v-7.92c-1.26 2.7-3.18 4.8-5.76 6.3s-5.64 2.28-9.12 2.28c-3.96 0-7.56-1.02-10.8-3.06s-5.76-5.04-7.56-8.94c-1.86-3.9-2.76-8.46-2.76-13.68s.9-9.78 2.76-13.68c1.86-3.84 4.38-6.84 7.56-8.88 3.24-2.04 6.84-3.06 10.8-3.06 3.48-.12 6.48.66 9.12 2.16zm-10.02 15.84c-1.68 1.8-2.52 4.32-2.52 7.56 0 3.3.84 5.82 2.52 7.62s3.9 2.7 6.66 2.7c2.64 0 4.8-.9 6.54-2.76s2.58-4.38 2.58-7.56-.84-5.64-2.58-7.5-3.9-2.76-6.54-2.76c-2.76-.06-4.98.9-6.66 2.7zM311.46 45.84c3.54 3.84 5.34 9.06 5.34 15.72v29.1h-17.52V63.78c0-2.7-.72-4.74-2.22-6.24s-3.48-2.22-6-2.22c-2.64 0-4.68.78-6.18 2.28s-2.28 3.66-2.28 6.48v26.58h-17.52V63.78c0-2.7-.72-4.74-2.22-6.24s-3.48-2.22-6-2.22c-2.64 0-4.68.78-6.18 2.28s-2.28 3.66-2.28 6.48v26.58h-17.58v-50.1h17.58v7.68c1.44-2.52 3.42-4.5 6-5.94s5.58-2.16 9-2.16c3.72 0 7.08.84 9.9 2.52 2.88 1.68 5.1 4.02 6.72 7.14 1.74-2.94 4.02-5.28 6.96-7.02s6.18-2.64 9.72-2.64c6.3-.06 11.22 1.86 14.76 5.7zM360.9 44.76c3.9 3.24 6.42 7.5 7.44 12.78H351.9c-.42-1.8-1.26-3.12-2.52-4.02s-2.82-1.32-4.68-1.32c-1.32 0-2.28.3-3 .84-.66.54-1.02 1.38-1.02 2.34 0 1.26.72 2.16 2.16 2.82 1.44.6 3.84 1.32 7.2 2.1 3.84.84 7.08 1.74 9.6 2.7s4.74 2.52 6.6 4.62c1.86 2.16 2.82 5.04 2.82 8.64 0 2.94-.78 5.52-2.4 7.74-1.62 2.28-3.96 4.02-7.02 5.34-3.06 1.26-6.66 1.92-10.86 1.92-7.02 0-12.6-1.5-16.8-4.56-4.14-3.06-6.72-7.38-7.56-13.02h16.86c.24 1.86 1.02 3.24 2.34 4.08 1.32.9 3 1.32 5.04 1.32 1.38 0 2.4-.3 3.12-.9s1.08-1.38 1.08-2.34c0-1.44-.78-2.46-2.28-3.12s-3.96-1.32-7.26-1.98c-3.78-.78-6.96-1.62-9.36-2.52-2.46-.9-4.56-2.4-6.36-4.44s-2.7-4.92-2.7-8.52c0-4.5 1.74-8.22 5.28-11.1s8.52-4.26 15-4.26c6.54 0 11.76 1.62 15.72 4.86zM439.92 42.18c2.58 1.5 4.5 3.6 5.76 6.3v-7.92h17.52v50.1h-17.52v-7.92c-1.26 2.7-3.18 4.8-5.76 6.3s-5.64 2.28-9.12 2.28c-3.96 0-7.56-1.02-10.8-3.06s-5.76-5.04-7.56-8.94c-1.86-3.9-2.76-8.46-2.76-13.68s.9-9.78 2.76-13.68c1.86-3.84 4.38-6.84 7.56-8.88 3.24-2.04 6.84-3.06 10.8-3.06 3.48-.12 6.54.66 9.12 2.16zM429.9 58.02c-1.68 1.8-2.52 4.32-2.52 7.56 0 3.3.84 5.82 2.52 7.62s3.9 2.7 6.66 2.7c2.64 0 4.8-.9 6.54-2.76s2.58-4.38 2.58-7.56-.84-5.64-2.58-7.5-3.9-2.76-6.54-2.76c-2.7-.06-4.92.9-6.66 2.7zM530.52 40.56v50.1h-17.58v-50.1zM579.54 45.3c4.38 3.6 7.14 8.58 8.28 14.94h-18.54c-.42-1.74-1.2-3.06-2.28-3.96s-2.52-1.38-4.26-1.38c-2.16 0-3.9.9-5.22 2.7s-1.98 4.44-1.98 7.92c0 3.54.66 6.18 1.98 7.92 1.32 1.8 3.06 2.7 5.22 2.7 1.74 0 3.12-.48 4.26-1.38 1.08-.9 1.86-2.22 2.28-3.96h18.54c-1.14 6.36-3.9 11.34-8.28 15-4.38 3.6-9.84 5.46-16.32 5.46-4.98 0-9.42-1.02-13.26-3.06s-6.84-5.04-9-8.94-3.24-8.46-3.24-13.68 1.08-9.78 3.24-13.68c2.16-3.84 5.16-6.84 9-8.88s8.28-3.06 13.2-3.06c6.54-.06 11.94 1.74 16.38 5.34zM404.16 75.66v15h-7.26c-6.12 0-10.92-1.5-14.4-4.56s-5.16-8.04-5.16-15.06v-42.6h17.58v12.12h9V55.2h-9v16.14c0 1.56.36 2.64 1.02 3.3s1.86.96 3.42.96z"/>
    </g>
    <path fill="#7dacff" d="M148.98 34.8h10.98V23.88c0-3-1.08-5.22-3.3-7.2-2.22-2.04-4.74-3.06-7.68-3.06-1.98 0-3.78.48-5.46 1.44s-3 2.22-4.02 3.84-1.5 3.36-1.5 5.34c0 1.92.48 3.66 1.5 5.28s2.34 2.94 4.02 3.84c1.74.96 3.54 1.44 5.46 1.44z"/><path fill="#ff4863" d="M523.92 34.8h-10.98V23.88c0-3 1.08-5.22 3.3-7.2 2.22-2.04 4.74-3.06 7.68-3.06 1.98 0 3.78.48 5.46 1.44s3 2.22 4.02 3.84 1.5 3.36 1.5 5.34c0 1.92-.48 3.66-1.5 5.28s-2.34 2.94-4.02 3.84c-1.68.96-3.48 1.44-5.46 1.44z"/><path fill="#fff" d="M502.86 75.66v15h-7.26c-6.12 0-10.92-1.5-14.4-4.56s-5.16-8.04-5.16-15.06v-42.6h17.58v12.12h9V55.2h-9v16.14c0 1.56.36 2.64 1.02 3.3s1.86.96 3.42.96z"/>
    <path fill="#7dacff" d="M77.04 84.9v-4.32H43.68c-14.52-.18-21.12-8.7-25.8-14.64-3.78 5.64-5.7 11.94-5.7 18.9 0 6.06 1.44 11.58 4.38 16.68 2.88 5.1 6.78 9.18 11.7 12.3s10.32 4.68 16.38 4.68c5.82 0 11.22-1.56 16.2-4.68s8.94-7.2 11.88-12.3c2.88-5.1 4.32-10.62 4.32-16.62z"/>
    <path fill="#ff4863" d="M77.04 47.04v4.32H43.68c-14.52.18-21.12 8.76-25.8 14.7-3.78-5.64-5.7-12-5.7-18.96 0-6.06 1.44-11.58 4.38-16.68 2.88-5.1 6.78-9.18 11.7-12.3s10.32-4.68 16.38-4.68c5.82 0 11.22 1.56 16.2 4.68s8.94 7.2 11.88 12.3c2.88 5.1 4.32 10.62 4.32 16.62z"/>
    <path fill="#fff" d="M17.82 66c1.08 1.62 2.34 3.12 3.72 4.68 6.24 6.78 13.02 10.14 22.14 10.14h33.36V51.18H43.68c-9.12 0-15.9 3.36-22.14 10.14-1.38 1.56-2.64 3.06-3.72 4.68z"/>
  </g>
</svg>