<svg height="40" viewBox="0 0 165 40" width="165" xmlns="http://www.w3.org/2000/svg"><g fill="none" fill-rule="evenodd"><path d="m155.462317.5h-145.91932906c-.30579887.00000006-.44075823.00005738-.60966344.00034482-.17417515.00029641-.33184654.00082006-.4829874.00164557-.13939953.0010519-.13939953.0010519-.27910046.00271072-.11978181.00152015-.2169306.00302708-.4360031.00662355-.09962691.00163114-.09962691.00163114-.19523886.00312014-.76467264.01905716-1.36408846.06779092-1.93194223.16947628-.63432156.11096194-1.20782732.29883033-1.76092803.57958091-.55245096.28271694-1.05740535.65014799-1.49625042 1.08915575-.4372383.43229465-.80334748.93634645-1.08573654 1.49327779-.27956384.54642741-.46624223 1.1199031-.5787759 1.76523947-.10266717.56315835-.15180407 1.15751657-.17147377 1.92733454-.00398303.13262357-.006591.2692103-.00898814.45194883-.00103317.0813326-.00103317.0813326-.00200378.16306969-.00176654.14876915-.00176654.14876915-.00389587.29077194v1.0918 20.9287.8737814c0 .1099685 0 .1099685-.00006236.2121222.00219181.1512429.00219181.1512429.00395805.2998098.00095649.0802894.00095649.0802894.00197284.1600767.00240014.1826141.00501434.3198069.0090815.4571399.0196083.7674968.06874649 1.3618483.17208782 1.9287874.11223776.6437256.29931256 1.2193283.57849596 1.7632234.28273557.5550109.64933419 1.0581781 1.08873565 1.4891918.43476407.4384264.93829714.8045973 1.49306787 1.0857744.54605915.2797757 1.11707281.4670387 1.76276643.5836352.55885165.1001614 1.14371063.1472752 1.92842126.1690785.31944695.0070216.61762993.0105793.9114426.0105868.15151034.0008276.30918173.0013513.48335688.0016477.16890521.0002874.30386457.0003447.60966344.0003448h145.91942906c.270394 0 .391079-.0000417.541781-.0002495.19905-.0002745.374269-.0008192.543161-.0017505.292505 0 .600474-.0036394.908911-.0105098.790356-.0218076 1.372981-.0688451 1.92673-.1690417.646195-.1166171 1.219236-.3039285 1.772288-.58457.552447-.2805097 1.055895-.6468719 1.494127-1.089116.431841-.4253088.799719-.9291444 1.087346-1.4838247.278695-.5507304.465703-1.1288689.574206-1.7700101.101867-.5474228.148705-1.1041081.177362-1.9167108.001803-.1434057.002858-.2914376.003386-.4586356.000399-.1261411.000478-.2267619.000594-.4677231.002164-.1079622.002164-.1079622.003771-.2161254.003268-.2385501.00392-.4298147.00392-.8669328v-20.9287c0-.54425221-.001285-.7837438-.007807-1.0918 0-.2298225-.000081-.3316035-.000485-.45886146-.000532-.16749646-.001588-.31509366-.00311-.44449417-.028926-.82385831-.075764-1.38056644-.179068-1.93616479-.106712-.63095234-.293257-1.20674929-.570976-1.75740888-.28846-.55904732-.655988-1.06398565-1.092027-1.49700002-.436058-.43650935-.940984-.80418087-1.489452-1.08534636-.561928-.28249908-1.137226-.47034417-1.77423-.58170065-.560452-.10132466-1.157461-.14996992-1.920817-.1688882-.087938-.00142716-.087938-.00142716-.176159-.00288443-.142321-.00234473-.142321-.00234473-.284645-.00454459-.174786-.00261723-.319943-.00431742-.456366-.00521271-.164916-.000825-.338816-.00131431-.535959-.00156322-.273819-.00023049-.273819-.00023049-.546582-.00023052z" fill="#000" stroke="#222326"/><g fill="#fff"><path d="m89.3474827 18.6666318c.5181007.3100857 1.1894129.137925 1.4975104-.3843097.307958-.5213928.1375834-1.1958641-.3819126-1.5059497-4.3362498-2.5883029-11.197839-2.8316009-15.3254811-1.5717553-.5778225.1765103-.9035017.7900869-.7285223 1.3709713.1749793.5806038.7855929.9083685 1.3629967.7322791 3.5957273-1.0973663 9.8087489-.890549 13.5754089 1.3587643zm-.1233506 3.3315263c.2633062-.4301912.1285135-.9942384-.2997254-1.2594247-3.6067507-2.2288281-8.8826422-2.8560148-13.1267976-1.5610917-.4808443.1473258-.7526622.658055-.6074043 1.1425463.1462347.483509.6551259.7566931 1.136947.6103495 3.7151709-1.1339873 8.5036599-.5717642 11.6439386 1.3692876.4282389.2646251.9888983.1295063 1.2530417-.301667zm-1.429835 3.1994942c.2100031-.3451631.101862-.7962605-.2415384-1.0071468-3.0799988-1.8925045-6.8982875-2.3329383-11.3495157-1.3096558-.3927965.0899389-.6375443.4826673-.5476825.8767987.0894432.3939911.4800071.6410775.8719663.5507177 4.0675017-.9343259 7.5213199-.5533836 10.2654533 1.1330051.3429817.2110266.7914535.1024265 1.001317-.2437189zm-5.358916-16.9476523c6.4537228 0 11.6852416 5.2605113 11.6852416 11.7498597 0 6.4897693-5.2315188 11.7501403-11.6852416 11.7501403-6.4535832 0-11.6853811-5.260371-11.6853811-11.7501403 0-6.4893484 5.2317979-11.7498597 11.6853811-11.7498597zm20.1062959 10.8472439c2.458082.6010891 3.460516 1.5341522 3.460516 3.2212424 0 1.9961937-1.516906 3.2860657-3.864336 3.2860657-1.659373 0-3.1969309-.592951-4.4473214-1.7152926-.0534426-.0474249-.0593032-.129366-.0129769-.1842273l1.1045744-1.3218628c.022605-.0273605.0551171-.0439171.0905595-.0468636.0337679-.0019643.0703266.0086993.0969781.0317101 1.0745743.935729 2.0352853 1.334631 3.2128383 1.334631 1.060341 0 1.719234-.4613401 1.719234-1.2034409 0-.6698411-.325819-1.0443291-2.256452-1.4914978-2.268312-.5512789-3.5809359-1.265458-3.5809359-3.2824176 0-1.8808587 1.5216503-3.1954253 3.7001009-3.1954253 1.481603 0 2.749157.4415563 3.874801 1.3497844.054559.0440575.065583.1231924.025117.1807196l-.985131 1.3963675c-.020791.0294651-.051908.0488279-.087211.0541597-.035302.0056124-.071163-.0029465-.099768-.0244139-.945921-.709128-1.847888-1.0535896-2.757669-1.0535896-.938525 0-1.56979.4534827-1.56979 1.1276734 0 .7133372.359307 1.052888 2.376872 1.5366776zm10.475456 2.2610995c0-1.4016993-.892757-2.4186678-2.122217-2.4186678-1.235321 0-2.167148 1.0394182-2.167148 2.4186678 0 1.3793899.931827 2.4186678 2.167148 2.4186678 1.249553 0 2.122217-.994098 2.122217-2.4186678zm-1.704025-4.2619234c1.890586 0 3.804475 1.4638567 3.804475 4.2619234 0 2.7975054-1.913889 4.2609412-3.804475 4.2609412-1.017224 0-1.851934-.3793989-2.54027-1.1561563v3.2596873c0 .0733823-.059164.1331545-.132141.1331545h-1.806446c-.072977 0-.132001-.0597722-.132001-.1331545v-10.3271139c0-.0733822.059024-.1331544.132001-.1331544h1.806446c.072977 0 .132141.0597722.132141.1331544v.929415c.688196-.8257257 1.522767-1.2286967 2.54027-1.2286967zm8.710314 6.6954641c1.307461 0 2.256452-1.0102337 2.256452-2.4030934 0-1.3882295-.982898-2.4345229-2.286313-2.4345229-1.298949 0-2.241521 1.0110756-2.241521 2.4040756 0 1.3872473.97634 2.4335407 2.271382 2.4335407zm0-6.6954641c2.426687 0 4.326901 1.8720192 4.326901 4.2619234 0 2.3979019-1.913331 4.2767963-4.356762 4.2767963-2.418035 0-4.312389-1.8654246-4.312389-4.246349 0-2.4071624 1.90747-4.2923707 4.34225-4.2923707zm9.526326.1661273c.072978 0 .131723.0597722.131723.1331544v1.561232c0 .073242-.058745.1330141-.131723.1330141h-1.987982v3.7551228c0 .5930914.258701.8575762.838198.8575762.376052 0 .712475-.0812396 1.060481-.257329.040326-.0200643.089303-.0188016.128653.0060334.03893.0241333.062791.0673489.062791.1132303v1.4867273c0 .0474248-.025675.0920435-.066838.1151947-.506659.2888987-1.044294.4234563-1.692304.4234563-1.593651 0-2.40171-.8276901-2.40171-2.4601997v-4.0398123h-.868617c-.072838 0-.131583-.0597721-.131583-.1330141v-1.561232c0-.0733822.058745-.1331544.131583-.1331544h.868617v-2.0437589c0-.0733822.059443-.1330141.13256-.1330141h1.806306c.072978 0 .131863.0596319.131863.1330141v2.0437589zm6.926195.0079977h3.086138c.054839 0 .104095.0339551.123351.0855892l2.110217 5.5370628 1.926587-5.5334147c.018419-.0533179.068931-.0892373.125164-.0892373h1.880679c.043815 0 .083862.0217481.108699.0576675.024978.0364807.029582.0826427.013954.1236133l-3.134139 8.1436061c-.650103 1.6809166-1.387416 2.3058584-2.721389 2.3058584-.713034 0-1.290158-.1485886-1.929377-.4966983-.061117-.0331132-.085955-.1080389-.056792-.17188l.612288-1.3507666c.014652-.0338148.043676-.0594916.078141-.0718389.034884-.0108039.072978-.0078574.105211.009962.342703.188577.67787.2841283.996154.2841283.393773 0 .682196-.1302079.975503-.7847552l-2.583806-6.2294938h-1.686722v6.2311775c0 .0733823-.059443.1330142-.132421.1330142h-1.806445c-.072838 0-.131723-.0596319-.131723-.1330142v-6.2311775h-.867919c-.072839 0-.13256-.0597721-.13256-.1330141v-1.5692297c0-.0732419.059721-.1330141.13256-.1330141h.867919v-.38445c0-1.7865702.881874-2.7314193 2.550596-2.7314193.685685 0 1.143645.1100032 1.501557.2169196.055954.0172581.09335.0691729.09335.127542v1.5307846c0 .0426544-.019674.0829234-.054559.1080389-.033907.0251156-.077443.0317101-.119164.018521-.338796-.1136513-.641312-.1888576-1.017922-.1888576-.631544 0-.91313.3293081-.91313 1.0677609zm-4.015315-.0079977c.072839 0 .132281.0597722.132281.1331544v7.9254236c0 .0733823-.059442.1330142-.132281.1330142h-1.806584c-.072978 0-.132281-.0596319-.132281-.1330142v-7.9254236c0-.0733822.059303-.1331544.132281-.1331544zm-.894152-3.6086389c.715405 0 1.2956.5827084 1.2956 1.3023596 0 .7199318-.580195 1.3032014-1.2956 1.3032014-.715546 0-1.296438-.5832696-1.296438-1.3032014 0-.7196512.580892-1.3023596 1.296438-1.3023596zm15.900512 4.3970421h-.330981v.4244385h.330981c.165212 0 .263865-.0812396.263865-.2124297 0-.1380653-.098653-.2120088-.263865-.2120088zm.214608.6054387.359587.5062393h-.303214l-.323726-.4642865h-.278236v.4642865h-.253818v-1.3417868h.595125c.309912 0 .513915.1593925.513915.4279463 0 .2200064-.126421.3544236-.309633.4076012zm-.281864-1.2821549c-.651219 0-1.144064.5205509-1.144064 1.1579803 0 .6370085.489356 1.1506843 1.137366 1.1506843.651079 0 1.144342-.5202704 1.144342-1.1579804 0-.6371488-.489635-1.1506842-1.137644-1.1506842zm-.006698 2.4364872c-.714987 0-1.271321-.5773766-1.271321-1.2785069 0-.7012705.56359-1.2851014 1.278019-1.2851014.714847 0 1.271321.5772363 1.271321 1.2778053 0 .7011302-.563171 1.285803-1.278019 1.285803z"/><path d="m19.609 22.904h-3.859v-6.0265h1.173v4.9045h2.686zm2.797419 0h-1.19v-6.0265h1.19zm6.2314189-4.59-1.054.323c-.0595-.3315-.3315-.85-1.0965-.85-.5695 0-.9435.3655-.9435.765 0 .3315.2125.595.6545.68l.8415.1615c1.0965.2125 1.683.9265 1.683 1.7765 0 .9265-.7735 1.8615-2.176 1.8615-1.598 0-2.3035-1.0285-2.397-1.887l1.088-.289c.051.595.4675 1.1305 1.3175 1.1305.629 0 .9775-.3145.9775-.7395 0-.3485-.2635-.6205-.731-.714l-.8415-.17c-.9605-.1955-1.581-.816-1.581-1.7255 0-1.071.9605-1.887 2.0995-1.887 1.462 0 2.023.884 2.159 1.564zm6.350419-.323h-1.904v4.913h-1.1815v-4.913h-1.904v-1.1135h4.9895zm5.381419 4.913h-3.774v-6.0265h3.774v1.105h-2.601v1.377h2.3545v1.0455h-2.3545v1.394h2.601zm7.0474189 0h-1.2325l-2.737-4.2755v4.2755h-1.173v-6.0265h1.462l2.5075 3.9865v-3.9865h1.173zm5.688338-3.0175c0 1.36.952 2.006 1.8785 2.006.935 0 1.887-.646 1.887-2.006s-.952-2.006-1.887-2.006c-.9265 0-1.8785.646-1.8785 2.006zm-1.2155.0085c0-1.9465 1.462-3.145 3.094-3.145 1.6405 0 3.1025 1.1985 3.1025 3.145 0 1.938-1.462 3.1365-3.1025 3.1365-1.632 0-3.094-1.1985-3.094-3.1365zm13.1589189 3.009h-1.2325l-2.737-4.2755v4.2755h-1.173v-6.0265h1.462l2.5075 3.9865v-3.9865h1.173z"/></g></g></svg>