<svg fill="none" height="1384" width="326" xmlns="http://www.w3.org/2000/svg"><rect fill="#00f5c4" height="92" rx="9" width="323" x="1.5"/><path d="M93.885 53V38.781h4.199c1.256 0 2.37.28 3.34.84a5.715 5.715 0 012.265 2.383c.534 1.029.801 2.207.801 3.535v.713c0 1.348-.27 2.533-.81 3.555a5.62 5.62 0 01-2.295 2.363c-.99.553-2.126.83-3.408.83zm2.47-12.227v10.254h1.612c1.295 0 2.288-.403 2.978-1.21.697-.814 1.052-1.98 1.065-3.497v-.79c0-1.544-.336-2.722-1.006-3.536-.671-.814-1.644-1.22-2.92-1.22zm15.02 12.422c-1.504 0-2.725-.472-3.662-1.416-.931-.95-1.397-2.213-1.397-3.789v-.293c0-1.054.202-1.995.606-2.822.41-.833.983-1.481 1.719-1.943a4.53 4.53 0 012.461-.694c1.438 0 2.548.46 3.33 1.377.787.918 1.181 2.217 1.181 3.897v.957h-6.904c.072.872.361 1.562.869 2.07.514.508 1.159.762 1.934.762 1.087 0 1.972-.44 2.656-1.319l1.279 1.221a4.296 4.296 0 01-1.699 1.475c-.703.345-1.494.517-2.373.517zm-.283-9.052c-.651 0-1.179.227-1.582.683-.397.456-.651 1.09-.762 1.904h4.522v-.175c-.053-.795-.264-1.394-.635-1.797-.371-.41-.886-.615-1.543-.615zm.537-6.143h2.705l-2.705 2.959h-1.904zm9.424 11.992l2.236-7.558h2.451L122.078 53h-2.06l-3.692-10.566h2.461zm10.693 3.203c-1.504 0-2.725-.472-3.662-1.416-.931-.95-1.396-2.213-1.396-3.789v-.293c0-1.054.201-1.995.605-2.822.41-.833.983-1.481 1.719-1.943a4.53 4.53 0 012.461-.694c1.438 0 2.548.46 3.33 1.377.787.918 1.181 2.217 1.181 3.897v.957h-6.904c.072.872.361 1.562.869 2.07.515.508 1.159.762 1.934.762 1.087 0 1.972-.44 2.656-1.319l1.279 1.221a4.296 4.296 0 01-1.699 1.475c-.703.345-1.494.517-2.373.517zm-.283-9.052c-.651 0-1.178.227-1.582.683-.397.456-.651 1.09-.762 1.904h4.522v-.175c-.052-.795-.264-1.394-.635-1.797-.371-.41-.886-.615-1.543-.615zM140.359 53h-2.373V38h2.373zm2.149-5.38c0-1.036.205-1.967.615-2.794.41-.833.986-1.471 1.729-1.914.742-.45 1.595-.674 2.558-.674 1.426 0 2.582.46 3.467 1.377.892.918 1.374 2.136 1.445 3.653l.01.556c0 1.042-.202 1.973-.605 2.793-.398.82-.97 1.455-1.719 1.904-.742.45-1.602.674-2.578.674-1.491 0-2.686-.495-3.584-1.484-.892-.996-1.338-2.321-1.338-3.975zm2.373.204c0 1.087.224 1.94.674 2.559.449.612 1.074.918 1.875.918.8 0 1.422-.313 1.865-.938.449-.625.674-1.54.674-2.744 0-1.068-.231-1.914-.694-2.539-.455-.625-1.077-.937-1.865-.937-.775 0-1.39.309-1.846.927-.455.612-.683 1.53-.683 2.754zm18.711 0c0 1.634-.371 2.94-1.113 3.916-.743.97-1.739 1.455-2.989 1.455-1.159 0-2.086-.38-2.783-1.142v5.01h-2.373v-14.63h2.187l.098 1.075c.697-.847 1.644-1.27 2.842-1.27 1.289 0 2.298.482 3.027 1.446.736.957 1.104 2.288 1.104 3.994zm-2.363-.205c0-1.055-.212-1.891-.635-2.51-.417-.618-1.016-.927-1.797-.927-.97 0-1.667.4-2.09 1.2v4.688c.43.82 1.133 1.23 2.109 1.23.756 0 1.345-.302 1.768-.907.43-.612.645-1.537.645-2.774zm13.632.205c0 1.634-.371 2.94-1.113 3.916-.742.97-1.738 1.455-2.988 1.455-1.159 0-2.087-.38-2.783-1.142v5.01h-2.373v-14.63h2.187l.098 1.075c.696-.847 1.644-1.27 2.841-1.27 1.29 0 2.299.482 3.028 1.446.735.957 1.103 2.288 1.103 3.994zm-2.363-.205c0-1.055-.212-1.891-.635-2.51-.416-.618-1.015-.927-1.797-.927-.97 0-1.666.4-2.089 1.2v4.688c.429.82 1.132 1.23 2.109 1.23.755 0 1.344-.302 1.768-.907.429-.612.644-1.537.644-2.774zm9.033 5.576c-1.504 0-2.724-.472-3.662-1.416-.931-.95-1.396-2.213-1.396-3.789v-.293c0-1.054.201-1.995.605-2.822.41-.833.983-1.481 1.719-1.943a4.532 4.532 0 012.461-.694c1.439 0 2.549.46 3.33 1.377.788.918 1.182 2.217 1.182 3.897v.957h-6.905c.072.872.362 1.562.869 2.07.515.508 1.159.762 1.934.762 1.087 0 1.973-.44 2.656-1.319l1.28 1.221a4.306 4.306 0 01-1.7 1.475c-.703.345-1.494.517-2.373.517zm-.283-9.052c-.651 0-1.178.227-1.582.683-.397.456-.651 1.09-.762 1.904h4.522v-.175c-.052-.795-.264-1.394-.635-1.797-.371-.41-.885-.615-1.543-.615zm8.604-1.71l.068 1.104c.742-.866 1.758-1.299 3.047-1.299 1.413 0 2.379.54 2.9 1.621.768-1.08 1.849-1.62 3.242-1.62 1.166 0 2.032.321 2.598.966.573.645.866 1.595.879 2.852V53h-2.373v-6.875c0-.67-.147-1.162-.44-1.475s-.778-.468-1.455-.468c-.54 0-.983.146-1.328.44a2.284 2.284 0 00-.713 1.132l.01 7.246h-2.373v-6.953c-.032-1.244-.667-1.865-1.904-1.865-.951 0-1.625.387-2.022 1.162V53h-2.373V42.434zm19.824 10.762c-1.504 0-2.725-.472-3.662-1.416-.931-.95-1.397-2.213-1.397-3.789v-.293c0-1.054.202-1.995.606-2.822.41-.833.983-1.481 1.718-1.943a4.532 4.532 0 012.461-.694c1.439 0 2.549.46 3.33 1.377.788.918 1.182 2.217 1.182 3.897v.957h-6.904c.071.872.361 1.562.869 2.07.514.508 1.159.762 1.933.762 1.088 0 1.973-.44 2.657-1.319l1.279 1.221a4.303 4.303 0 01-1.699 1.475c-.703.345-1.494.517-2.373.517zm-.283-9.052c-.651 0-1.179.227-1.582.683-.398.456-.651 1.09-.762 1.904h4.521v-.175c-.052-.795-.263-1.394-.634-1.797-.372-.41-.886-.615-1.543-.615zm8.574-1.71l.068 1.221c.781-.944 1.807-1.416 3.076-1.416 2.201 0 3.321 1.26 3.36 3.78V53h-2.373v-6.846c0-.67-.147-1.165-.44-1.484-.286-.326-.758-.488-1.416-.488-.957 0-1.67.433-2.138 1.298V53h-2.374V42.434zm11.904-2.568v2.569h1.865v1.757h-1.865v5.899c0 .403.078.696.234.879.163.175.45.263.86.263.273 0 .55-.032.83-.097v1.836c-.54.15-1.061.224-1.563.224-1.822 0-2.734-1.006-2.734-3.017V44.19h-1.738v-1.757h1.738v-2.569z" fill="#000"/><circle cx="163" cy="245.5" r="92.5" stroke="#000" stroke-width="2"/><path d="M87.959 247.371c-.143 1.517-.703 2.702-1.68 3.555-.976.846-2.275 1.269-3.896 1.269-1.133 0-2.132-.267-2.998-.8-.86-.541-1.524-1.306-1.992-2.295-.47-.99-.713-2.139-.733-3.448v-1.328c0-1.341.238-2.523.713-3.545.475-1.022 1.156-1.81 2.041-2.363.892-.553 1.92-.83 3.086-.83 1.569 0 2.832.426 3.79 1.279.956.853 1.513 2.058 1.669 3.614h-2.461c-.117-1.023-.417-1.758-.898-2.208-.476-.455-1.175-.683-2.1-.683-1.074 0-1.901.394-2.48 1.182-.573.781-.866 1.93-.88 3.447v1.26c0 1.536.274 2.708.82 3.515.554.807 1.362 1.211 2.423 1.211.97 0 1.699-.218 2.187-.654s.798-1.162.928-2.178zm1.543-.752c0-1.035.205-1.966.615-2.793.41-.833.987-1.471 1.729-1.914.742-.449 1.595-.674 2.558-.674 1.426 0 2.582.459 3.467 1.377.892.918 1.374 2.136 1.445 3.653l.01.556c0 1.042-.202 1.973-.605 2.793a4.393 4.393 0 01-1.719 1.904c-.742.45-1.602.674-2.578.674-1.491 0-2.686-.494-3.584-1.484-.892-.996-1.338-2.321-1.338-3.975zm2.373.205c0 1.087.225 1.94.674 2.559.449.612 1.074.918 1.875.918s1.422-.313 1.865-.938c.45-.625.674-1.539.674-2.744 0-1.068-.231-1.914-.693-2.539-.456-.625-1.078-.937-1.866-.937-.774 0-1.39.309-1.845.927-.456.612-.684 1.53-.684 2.754zm11.66-5.39l.069 1.22c.781-.944 1.806-1.416 3.076-1.416 2.2 0 3.32 1.26 3.359 3.78V252h-2.373v-6.846c0-.67-.146-1.165-.439-1.484-.287-.326-.759-.488-1.416-.488-.957 0-1.67.433-2.139 1.298V252h-2.373v-10.566zm11.904-2.569v2.569h1.866v1.757h-1.866v5.899c0 .403.079.696.235.879.163.176.449.263.859.263.274 0 .55-.032.83-.097v1.836a5.869 5.869 0 01-1.562.224c-1.823 0-2.735-1.006-2.735-3.017v-5.987h-1.738v-1.757h1.738v-2.569zm9.219 4.737a5.772 5.772 0 00-.967-.079c-1.087 0-1.819.417-2.197 1.25V252h-2.373v-10.566h2.266l.058 1.181c.573-.918 1.367-1.377 2.383-1.377.339 0 .619.046.84.137zm.703 3.017c0-1.035.205-1.966.616-2.793.41-.833.986-1.471 1.728-1.914.742-.449 1.595-.674 2.559-.674 1.425 0 2.581.459 3.466 1.377.892.918 1.374 2.136 1.446 3.653l.01.556c0 1.042-.202 1.973-.606 2.793a4.391 4.391 0 01-1.719 1.904c-.742.45-1.601.674-2.578.674-1.491 0-2.685-.494-3.584-1.484-.892-.996-1.338-2.321-1.338-3.975zm2.373.205c0 1.087.225 1.94.674 2.559.449.612 1.074.918 1.875.918s1.423-.313 1.865-.938c.45-.625.674-1.539.674-2.744 0-1.068-.231-1.914-.693-2.539-.456-.625-1.078-.937-1.865-.937-.775 0-1.39.309-1.846.927-.456.612-.684 1.53-.684 2.754zm5.85-7.119v.107h-1.904l-1.465-1.523-1.455 1.523h-1.885v-.126l2.646-2.696h1.397zM139.717 252h-2.373v-15h2.373zm7.246.195c-1.504 0-2.725-.472-3.662-1.416-.931-.95-1.397-2.213-1.397-3.789v-.293c0-1.054.202-1.995.606-2.822.41-.833.983-1.481 1.719-1.943a4.523 4.523 0 012.46-.694c1.439 0 2.549.459 3.331 1.377.787.918 1.181 2.217 1.181 3.897v.957h-6.904c.071.872.361 1.562.869 2.07.514.508 1.159.762 1.934.762 1.087 0 1.972-.44 2.656-1.319l1.279 1.221a4.297 4.297 0 01-1.699 1.475c-.703.345-1.494.517-2.373.517zm-.283-9.052c-.651 0-1.179.227-1.582.683-.397.456-.651 1.091-.762 1.904h4.521v-.175c-.052-.795-.263-1.394-.634-1.797-.371-.41-.886-.615-1.543-.615zm10.908 3.496c0-1.628.377-2.933 1.133-3.916.755-.99 1.767-1.485 3.037-1.485 1.12 0 2.025.391 2.715 1.172V237h2.373v15h-2.149l-.117-1.094c-.71.86-1.657 1.289-2.842 1.289-1.237 0-2.239-.498-3.008-1.494-.761-.996-1.142-2.35-1.142-4.062zm2.373.205c0 1.074.205 1.914.615 2.519.417.599 1.006.899 1.768.899.97 0 1.679-.433 2.129-1.299v-4.512c-.437-.846-1.14-1.269-2.11-1.269-.768 0-1.36.306-1.777.918-.417.605-.625 1.52-.625 2.744zm14.014 5.351c-1.504 0-2.725-.472-3.663-1.416-.93-.95-1.396-2.213-1.396-3.789v-.293c0-1.054.202-1.995.605-2.822.411-.833.984-1.481 1.719-1.943a4.526 4.526 0 012.461-.694c1.439 0 2.549.459 3.33 1.377.788.918 1.182 2.217 1.182 3.897v.957h-6.904c.071.872.361 1.562.869 2.07.514.508 1.159.762 1.933.762 1.088 0 1.973-.44 2.657-1.319l1.279 1.221a4.304 4.304 0 01-1.699 1.475c-.703.345-1.494.517-2.373.517zm-.284-9.052c-.651 0-1.178.227-1.582.683-.397.456-.651 1.091-.761 1.904h4.521v-.175c-.052-.795-.264-1.394-.635-1.797-.371-.41-.885-.615-1.543-.615zm15.079 5.849l2.236-7.558h2.451L189.795 252h-2.061l-3.691-10.566h2.461zm10.693 3.203c-1.504 0-2.725-.472-3.662-1.416-.931-.95-1.397-2.213-1.397-3.789v-.293c0-1.054.202-1.995.606-2.822.41-.833.983-1.481 1.719-1.943a4.523 4.523 0 012.46-.694c1.439 0 2.549.459 3.331 1.377.787.918 1.181 2.217 1.181 3.897v.957h-6.904c.071.872.361 1.562.869 2.07.514.508 1.159.762 1.934.762 1.087 0 1.972-.44 2.656-1.319l1.279 1.221a4.297 4.297 0 01-1.699 1.475c-.703.345-1.494.517-2.373.517zm-.283-9.052c-.651 0-1.179.227-1.582.683-.397.456-.651 1.091-.762 1.904h4.521v-.175c-.052-.795-.263-1.394-.634-1.797-.371-.41-.886-.615-1.543-.615zm11.904.459a5.78 5.78 0 00-.967-.079c-1.087 0-1.819.417-2.197 1.25V252h-2.373v-10.566h2.265l.059 1.181c.573-.918 1.367-1.377 2.383-1.377.338 0 .618.046.84.137zm7.422 5.527c0-.423-.176-.746-.527-.967-.346-.221-.922-.417-1.729-.586s-1.481-.384-2.021-.644c-1.185-.573-1.778-1.403-1.778-2.491 0-.911.384-1.673 1.153-2.285.768-.612 1.744-.918 2.929-.918 1.263 0 2.282.313 3.057.938.781.625 1.172 1.435 1.172 2.431h-2.373c0-.455-.17-.833-.508-1.132-.339-.306-.788-.459-1.348-.459-.521 0-.947.12-1.279.361a1.141 1.141 0 00-.488.967.96.96 0 00.459.849c.306.202.924.407 1.855.616.931.201 1.66.446 2.188.732.533.28.927.619 1.181 1.016.261.397.391.879.391 1.445 0 .95-.394 1.722-1.182 2.314-.788.586-1.819.879-3.096.879-.865 0-1.637-.156-2.314-.468-.677-.313-1.204-.743-1.582-1.289a3.05 3.05 0 01-.566-1.768h2.304c.033.56.244.993.635 1.299.391.299.908.449 1.553.449.625 0 1.1-.117 1.426-.352.325-.24.488-.553.488-.937zm6.933 2.871h-2.373v-10.566h2.373zm-2.519-13.311c0-.364.114-.667.342-.908.234-.241.566-.361.996-.361s.762.12.996.361.351.544.351.908c0 .359-.117.658-.351.899-.234.234-.566.351-.996.351s-.762-.117-.996-.351a1.256 1.256 0 01-.342-.899zm4.668 7.93c0-1.035.205-1.966.615-2.793.41-.833.986-1.471 1.729-1.914.742-.449 1.595-.674 2.558-.674 1.426 0 2.582.459 3.467 1.377.892.918 1.374 2.136 1.445 3.653l.01.556c0 1.042-.202 1.973-.605 2.793a4.391 4.391 0 01-1.719 1.904c-.742.45-1.602.674-2.578.674-1.491 0-2.686-.494-3.584-1.484-.892-.996-1.338-2.321-1.338-3.975zm2.373.205c0 1.087.225 1.94.674 2.559.449.612 1.074.918 1.875.918s1.422-.313 1.865-.938c.449-.625.674-1.539.674-2.744 0-1.068-.231-1.914-.694-2.539-.455-.625-1.077-.937-1.865-.937-.775 0-1.39.309-1.845.927-.456.612-.684 1.53-.684 2.754zm11.66-5.39l.068 1.22c.782-.944 1.807-1.416 3.077-1.416 2.2 0 3.32 1.26 3.359 3.78V252h-2.373v-6.846c0-.67-.147-1.165-.44-1.484-.286-.326-.758-.488-1.416-.488-.957 0-1.669.433-2.138 1.298V252h-2.373v-10.566z" fill="#000"/><rect fill="#ff871f" height="92" rx="9" width="321" x="2.5" y="399"/><path d="M68.059 450.154c-.515.671-1.228 1.179-2.14 1.524-.91.345-1.946.517-3.104.517-1.192 0-2.247-.27-3.165-.81-.918-.541-1.627-1.312-2.129-2.315-.494-1.009-.752-2.184-.771-3.525v-1.113c0-2.149.514-3.825 1.543-5.03 1.029-1.211 2.464-1.816 4.307-1.816 1.582 0 2.838.391 3.77 1.172.93.781 1.49 1.907 1.679 3.379h-2.422c-.274-1.713-1.266-2.569-2.979-2.569-1.106 0-1.95.401-2.529 1.202-.573.794-.869 1.962-.889 3.505v1.094c0 1.537.323 2.731.967 3.584.651.846 1.553 1.27 2.705 1.27 1.263 0 2.162-.287 2.696-.86v-2.783h-2.93v-1.875h5.39zm7.138 2.041c-1.504 0-2.724-.472-3.662-1.416-.93-.95-1.396-2.213-1.396-3.789v-.293c0-1.054.202-1.995.605-2.822.41-.833.983-1.481 1.719-1.943a4.525 4.525 0 012.46-.694c1.44 0 2.55.459 3.33 1.377.789.918 1.183 2.217 1.183 3.897v.957H72.53c.072.872.362 1.562.87 2.07.514.508 1.158.762 1.933.762 1.087 0 1.973-.44 2.656-1.319l1.28 1.221a4.301 4.301 0 01-1.7 1.475c-.703.345-1.494.517-2.373.517zm-.283-9.052c-.651 0-1.178.227-1.582.683-.397.456-.651 1.091-.762 1.904h4.522v-.175c-.052-.795-.264-1.394-.635-1.797-.371-.41-.885-.615-1.543-.615zm.537-6.143h2.705l-2.705 2.959h-1.904zm8.037 4.434l.069 1.22c.78-.944 1.806-1.416 3.076-1.416 2.2 0 3.32 1.26 3.36 3.78V452h-2.374v-6.846c0-.67-.146-1.165-.44-1.484-.286-.326-.758-.488-1.415-.488-.957 0-1.67.433-2.139 1.298V452h-2.373v-10.566zm13.584 10.761c-1.504 0-2.724-.472-3.662-1.416-.93-.95-1.396-2.213-1.396-3.789v-.293c0-1.054.202-1.995.605-2.822.41-.833.983-1.481 1.719-1.943a4.525 4.525 0 012.46-.694c1.44 0 2.55.459 3.331 1.377.788.918 1.182 2.217 1.182 3.897v.957h-6.905c.072.872.362 1.562.87 2.07.514.508 1.158.762 1.933.762 1.087 0 1.973-.44 2.656-1.319l1.28 1.221a4.308 4.308 0 01-1.7 1.475c-.703.345-1.494.517-2.373.517zm-.283-9.052c-.651 0-1.178.227-1.582.683-.397.456-.651 1.091-.762 1.904h4.522v-.175c-.052-.795-.264-1.394-.635-1.797-.371-.41-.885-.615-1.543-.615zm.537-6.143h2.705l-2.705 2.959h-1.904zm11.367 6.602a5.76 5.76 0 00-.966-.079c-1.088 0-1.82.417-2.198 1.25V452h-2.373v-10.566h2.266l.058 1.181c.573-.918 1.368-1.377 2.383-1.377.339 0 .619.046.84.137zm7.52 8.398c-.104-.202-.195-.531-.274-.986-.755.787-1.679 1.181-2.773 1.181-1.061 0-1.927-.302-2.598-.908-.67-.605-1.006-1.354-1.006-2.246 0-1.126.417-1.989 1.25-2.588.84-.605 2.038-.908 3.594-.908h1.455v-.693c0-.547-.153-.984-.459-1.309-.306-.332-.771-.498-1.396-.498-.541 0-.983.137-1.328.41-.345.267-.518.609-.518 1.025h-2.373c0-.579.192-1.119.576-1.621.384-.507.905-.905 1.563-1.191.664-.286 1.403-.43 2.217-.43 1.237 0 2.223.313 2.959.938.735.618 1.113 1.491 1.132 2.617v4.766c0 .95.134 1.709.401 2.275V452zm-2.608-1.709c.469 0 .909-.114 1.319-.342.416-.228.729-.534.937-.918v-1.992h-1.279c-.879 0-1.54.153-1.982.459-.443.306-.664.739-.664 1.299 0 .456.149.82.449 1.094.306.267.713.4 1.22.4zm10.088-11.426v2.569h1.866v1.757h-1.866v5.899c0 .403.078.696.235.879.162.176.449.263.859.263.274 0 .55-.032.83-.097v1.836a5.869 5.869 0 01-1.562.224c-1.823 0-2.735-1.006-2.735-3.017v-5.987h-1.738v-1.757h1.738v-2.569zM129.904 452h-2.373v-10.566h2.373zm-2.519-13.311c0-.364.114-.667.342-.908.234-.241.566-.361.996-.361.429 0 .761.12.996.361.234.241.351.544.351.908 0 .359-.117.658-.351.899-.235.234-.567.351-.996.351-.43 0-.762-.117-.996-.351a1.256 1.256 0 01-.342-.899zm4.668 7.93c0-1.035.205-1.966.615-2.793.41-.833.986-1.471 1.728-1.914.743-.449 1.596-.674 2.559-.674 1.426 0 2.581.459 3.467 1.377.892.918 1.374 2.136 1.445 3.653l.01.556c0 1.042-.202 1.973-.606 2.793a4.395 4.395 0 01-1.718 1.904c-.742.45-1.602.674-2.578.674-1.491 0-2.686-.494-3.584-1.484-.892-.996-1.338-2.321-1.338-3.975zm2.373.205c0 1.087.224 1.94.674 2.559.449.612 1.074.918 1.875.918.8 0 1.422-.313 1.865-.938.449-.625.674-1.539.674-2.744 0-1.068-.231-1.914-.694-2.539-.455-.625-1.077-.937-1.865-.937-.775 0-1.39.309-1.846.927-.455.612-.683 1.53-.683 2.754zm11.66-5.39l.068 1.22c.782-.944 1.807-1.416 3.076-1.416 2.201 0 3.321 1.26 3.36 3.78V452h-2.373v-6.846c0-.67-.147-1.165-.44-1.484-.286-.326-.758-.488-1.416-.488-.957 0-1.67.433-2.138 1.298V452h-2.373v-10.566zM166.311 452c-.105-.202-.196-.531-.274-.986-.755.787-1.68 1.181-2.773 1.181-1.062 0-1.927-.302-2.598-.908-.671-.605-1.006-1.354-1.006-2.246 0-1.126.417-1.989 1.25-2.588.84-.605 2.038-.908 3.594-.908h1.455v-.693c0-.547-.153-.984-.459-1.309-.306-.332-.771-.498-1.396-.498-.541 0-.984.137-1.329.41-.345.267-.517.609-.517 1.025h-2.373c0-.579.192-1.119.576-1.621.384-.507.905-.905 1.562-1.191.665-.286 1.403-.43 2.217-.43 1.237 0 2.224.313 2.959.938.736.618 1.113 1.491 1.133 2.617v4.766c0 .95.133 1.709.4 2.275V452zm-2.608-1.709c.469 0 .908-.114 1.318-.342.417-.228.73-.534.938-.918v-1.992h-1.279c-.879 0-1.54.153-1.983.459-.442.306-.664.739-.664 1.299 0 .456.15.82.449 1.094.306.267.713.4 1.221.4zm13.516.674c-.697.82-1.686 1.23-2.969 1.23-1.146 0-2.015-.335-2.607-1.006-.586-.67-.879-1.64-.879-2.91v-6.845h2.373v6.816c0 1.341.556 2.012 1.67 2.012 1.152 0 1.93-.414 2.334-1.241v-7.587h2.373V452h-2.237zm7.685-12.1v2.569h1.866v1.757h-1.866v5.899c0 .403.078.696.235.879.162.176.449.263.859.263.273 0 .55-.032.83-.097v1.836a5.869 5.869 0 01-1.562.224c-1.823 0-2.735-1.006-2.735-3.017v-5.987h-1.738v-1.757h1.738v-2.569zm2.95 7.754c0-1.035.205-1.966.615-2.793.41-.833.986-1.471 1.728-1.914.742-.449 1.595-.674 2.559-.674 1.426 0 2.581.459 3.467 1.377.892.918 1.373 2.136 1.445 3.653l.01.556c0 1.042-.202 1.973-.606 2.793a4.395 4.395 0 01-1.718 1.904c-.743.45-1.602.674-2.579.674-1.49 0-2.685-.494-3.584-1.484-.892-.996-1.337-2.321-1.337-3.975zm2.373.205c0 1.087.224 1.94.673 2.559.45.612 1.075.918 1.875.918.801 0 1.423-.313 1.866-.938.449-.625.673-1.539.673-2.744 0-1.068-.231-1.914-.693-2.539-.456-.625-1.077-.937-1.865-.937-.775 0-1.39.309-1.846.927-.456.612-.683 1.53-.683 2.754zm11.689-5.39l.068 1.103c.743-.866 1.758-1.299 3.047-1.299 1.413 0 2.38.541 2.901 1.621.768-1.08 1.849-1.621 3.242-1.621 1.165 0 2.031.323 2.597.967.573.645.866 1.595.879 2.852V452h-2.373v-6.875c0-.671-.146-1.162-.439-1.475-.293-.312-.778-.468-1.455-.468-.541 0-.983.146-1.328.439a2.279 2.279 0 00-.713 1.133l.01 7.246h-2.373v-6.953c-.033-1.244-.668-1.865-1.905-1.865-.95 0-1.624.387-2.021 1.162V452h-2.373v-10.566zM223.4 452c-.104-.202-.195-.531-.273-.986-.755.787-1.68 1.181-2.773 1.181-1.062 0-1.928-.302-2.598-.908-.671-.605-1.006-1.354-1.006-2.246 0-1.126.417-1.989 1.25-2.588.84-.605 2.038-.908 3.594-.908h1.455v-.693c0-.547-.153-.984-.459-1.309-.306-.332-.772-.498-1.397-.498-.54 0-.983.137-1.328.41-.345.267-.517.609-.517 1.025h-2.373c0-.579.192-1.119.576-1.621.384-.507.905-.905 1.562-1.191.664-.286 1.403-.43 2.217-.43 1.237 0 2.223.313 2.959.938.736.618 1.113 1.491 1.133 2.617v4.766c0 .95.133 1.709.4 2.275V452zm-2.607-1.709c.469 0 .908-.114 1.318-.342.417-.228.729-.534.938-.918v-1.992h-1.279c-.879 0-1.54.153-1.983.459s-.664.739-.664 1.299c0 .456.15.82.449 1.094.306.267.713.4 1.221.4zm10.088-11.426v2.569h1.865v1.757h-1.865v5.899c0 .403.078.696.234.879.163.176.449.263.86.263.273 0 .55-.032.83-.097v1.836a5.882 5.882 0 01-1.563.224c-1.823 0-2.734-1.006-2.734-3.017v-5.987h-1.738v-1.757h1.738v-2.569zM237.092 452h-2.373v-10.566h2.373zm-2.52-13.311c0-.364.114-.667.342-.908.234-.241.566-.361.996-.361s.762.12.996.361c.235.241.352.544.352.908 0 .359-.117.658-.352.899-.234.234-.566.351-.996.351s-.762-.117-.996-.351a1.256 1.256 0 01-.342-.899zm11.035 10.44c0-.423-.175-.746-.527-.967-.345-.221-.921-.417-1.728-.586-.808-.169-1.482-.384-2.022-.644-1.185-.573-1.777-1.403-1.777-2.491 0-.911.384-1.673 1.152-2.285s1.745-.918 2.93-.918c1.263 0 2.282.313 3.056.938.782.625 1.172 1.435 1.172 2.431h-2.373c0-.455-.169-.833-.508-1.132-.338-.306-.787-.459-1.347-.459-.521 0-.947.12-1.28.361a1.144 1.144 0 00-.488.967.96.96 0 00.459.849c.306.202.925.407 1.856.616.931.201 1.66.446 2.187.732.534.28.928.619 1.182 1.016.26.397.39.879.39 1.445 0 .95-.393 1.722-1.181 2.314-.788.586-1.82.879-3.096.879-.866 0-1.637-.156-2.314-.468-.677-.313-1.205-.743-1.582-1.289a3.052 3.052 0 01-.567-1.768h2.305c.032.56.244.993.635 1.299.39.299.908.449 1.552.449.625 0 1.101-.117 1.426-.352.326-.24.488-.553.488-.937zm9.063 3.066c-1.504 0-2.725-.472-3.662-1.416-.931-.95-1.397-2.213-1.397-3.789v-.293c0-1.054.202-1.995.606-2.822.41-.833.983-1.481 1.719-1.943a4.523 4.523 0 012.46-.694c1.439 0 2.549.459 3.331 1.377.787.918 1.181 2.217 1.181 3.897v.957h-6.904c.072.872.361 1.562.869 2.07.514.508 1.159.762 1.934.762 1.087 0 1.972-.44 2.656-1.319l1.279 1.221a4.297 4.297 0 01-1.699 1.475c-.703.345-1.494.517-2.373.517zm-.283-9.052c-.651 0-1.179.227-1.582.683-.397.456-.651 1.091-.762 1.904h4.521v-.175c-.052-.795-.263-1.394-.634-1.797-.371-.41-.886-.615-1.543-.615zm.537-6.143h2.705l-2.705 2.959h-1.904zm10.488 15.195c-1.504 0-2.724-.472-3.662-1.416-.931-.95-1.396-2.213-1.396-3.789v-.293c0-1.054.201-1.995.605-2.822.41-.833.983-1.481 1.719-1.943a4.523 4.523 0 012.461-.694c1.438 0 2.549.459 3.33 1.377.788.918 1.181 2.217 1.181 3.897v.957h-6.904c.072.872.361 1.562.869 2.07.515.508 1.159.762 1.934.762 1.087 0 1.972-.44 2.656-1.319l1.279 1.221a4.297 4.297 0 01-1.699 1.475c-.703.345-1.494.517-2.373.517zm-.283-9.052c-.651 0-1.178.227-1.582.683-.397.456-.651 1.091-.762 1.904h4.522v-.175c-.052-.795-.264-1.394-.635-1.797-.371-.41-.886-.615-1.543-.615z" fill="#000"/><circle cx="163" cy="644.5" r="92.5" stroke="#000" stroke-width="2"/><path d="M96.982 647.689h-5.507L90.322 651h-2.568l5.371-14.219h2.217L100.723 651h-2.578zm-4.814-1.992h4.121l-2.06-5.898zm15.869 2.432c0-.423-.176-.746-.527-.967-.345-.221-.921-.417-1.729-.586-.807-.169-1.481-.384-2.021-.644-1.185-.573-1.778-1.403-1.778-2.491 0-.911.385-1.673 1.153-2.285s1.745-.918 2.929-.918c1.263 0 2.282.313 3.057.938.781.625 1.172 1.435 1.172 2.431h-2.373c0-.455-.169-.833-.508-1.132-.338-.306-.788-.459-1.348-.459-.52 0-.947.12-1.279.361a1.144 1.144 0 00-.488.967.96.96 0 00.459.849c.306.202.924.407 1.855.616.931.201 1.66.446 2.188.732.534.28.928.619 1.181 1.016.261.397.391.879.391 1.445 0 .95-.394 1.722-1.182 2.314-.787.586-1.819.879-3.095.879-.866 0-1.638-.156-2.315-.468-.677-.313-1.204-.743-1.582-1.289a3.058 3.058 0 01-.566-1.768h2.305c.032.56.244.993.634 1.299.391.299.909.449 1.553.449.625 0 1.1-.117 1.426-.352.325-.24.488-.553.488-.937zm10.332 0c0-.423-.176-.746-.527-.967-.345-.221-.921-.417-1.729-.586-.807-.169-1.481-.384-2.021-.644-1.185-.573-1.778-1.403-1.778-2.491 0-.911.385-1.673 1.153-2.285s1.745-.918 2.929-.918c1.264 0 2.282.313 3.057.938.781.625 1.172 1.435 1.172 2.431h-2.373c0-.455-.169-.833-.508-1.132-.338-.306-.788-.459-1.348-.459-.52 0-.947.12-1.279.361a1.144 1.144 0 00-.488.967.96.96 0 00.459.849c.306.202.924.407 1.855.616.931.201 1.661.446 2.188.732.534.28.928.619 1.181 1.016.261.397.391.879.391 1.445 0 .95-.394 1.722-1.182 2.314-.787.586-1.819.879-3.095.879-.866 0-1.638-.156-2.315-.468-.677-.313-1.204-.743-1.582-1.289a3.058 3.058 0 01-.566-1.768h2.305c.032.56.244.993.634 1.299.391.299.909.449 1.553.449.625 0 1.1-.117 1.426-.352.325-.24.488-.553.488-.937zm9.063 3.066c-1.504 0-2.725-.472-3.662-1.416-.931-.95-1.397-2.213-1.397-3.789v-.293c0-1.054.202-1.995.606-2.822.41-.833.983-1.481 1.718-1.943a4.526 4.526 0 012.461-.694c1.439 0 2.549.459 3.33 1.377.788.918 1.182 2.217 1.182 3.897v.957h-6.904c.071.872.361 1.562.869 2.07.514.508 1.159.762 1.933.762 1.088 0 1.973-.44 2.657-1.319l1.279 1.221a4.304 4.304 0 01-1.699 1.475c-.703.345-1.494.517-2.373.517zm-.284-9.052c-.651 0-1.178.227-1.582.683-.397.456-.651 1.091-.761 1.904h4.521v-.175c-.052-.795-.264-1.394-.635-1.797-.371-.41-.885-.615-1.543-.615zm9.346-4.278v2.569h1.865v1.757h-1.865v5.899c0 .403.078.696.235.879.162.176.449.263.859.263.273 0 .55-.032.83-.097v1.836a5.87 5.87 0 01-1.563.224c-1.822 0-2.734-1.006-2.734-3.017v-5.987h-1.738v-1.757h1.738v-2.569zm9.61 10.264c0-.423-.176-.746-.528-.967-.345-.221-.921-.417-1.728-.586-.808-.169-1.481-.384-2.022-.644-1.185-.573-1.777-1.403-1.777-2.491 0-.911.384-1.673 1.152-2.285s1.745-.918 2.93-.918c1.263 0 2.282.313 3.057.938.781.625 1.171 1.435 1.171 2.431h-2.373c0-.455-.169-.833-.507-1.132-.339-.306-.788-.459-1.348-.459-.521 0-.947.12-1.279.361a1.142 1.142 0 00-.489.967.96.96 0 00.459.849c.306.202.925.407 1.856.616.931.201 1.66.446 2.187.732.534.28.928.619 1.182 1.016.26.397.391.879.391 1.445 0 .95-.394 1.722-1.182 2.314-.788.586-1.82.879-3.096.879-.866 0-1.637-.156-2.314-.468-.677-.313-1.205-.743-1.582-1.289a3.052 3.052 0 01-.567-1.768h2.305c.033.56.244.993.635 1.299.39.299.908.449 1.552.449.625 0 1.101-.117 1.426-.352.326-.24.489-.553.489-.937zm15.312 0c0-.423-.176-.746-.527-.967-.345-.221-.922-.417-1.729-.586s-1.481-.384-2.021-.644c-1.185-.573-1.778-1.403-1.778-2.491 0-.911.384-1.673 1.153-2.285.768-.612 1.744-.918 2.929-.918 1.263 0 2.282.313 3.057.938.781.625 1.172 1.435 1.172 2.431h-2.373c0-.455-.169-.833-.508-1.132-.339-.306-.788-.459-1.348-.459-.52 0-.947.12-1.279.361a1.144 1.144 0 00-.488.967.96.96 0 00.459.849c.306.202.924.407 1.855.616.931.201 1.66.446 2.188.732.534.28.927.619 1.181 1.016.261.397.391.879.391 1.445 0 .95-.394 1.722-1.182 2.314-.787.586-1.819.879-3.095.879-.866 0-1.638-.156-2.315-.468-.677-.313-1.204-.743-1.582-1.289a3.058 3.058 0 01-.566-1.768h2.304c.033.56.245.993.635 1.299.391.299.908.449 1.553.449.625 0 1.1-.117 1.426-.352.325-.24.488-.553.488-.937zm7.383-10.264v2.569h1.865v1.757h-1.865v5.899c0 .403.078.696.234.879.163.176.449.263.86.263.273 0 .55-.032.83-.097v1.836a5.882 5.882 0 01-1.563.224c-1.823 0-2.734-1.006-2.734-3.017v-5.987h-1.738v-1.757h1.738v-2.569zm10 13.135c-.104-.202-.195-.531-.274-.986-.755.787-1.679 1.181-2.773 1.181-1.061 0-1.927-.302-2.598-.908-.67-.605-1.006-1.354-1.006-2.246 0-1.126.417-1.989 1.25-2.588.84-.605 2.038-.908 3.594-.908h1.455v-.693c0-.547-.153-.984-.459-1.309-.306-.332-.771-.498-1.396-.498-.541 0-.983.137-1.328.41-.345.267-.518.609-.518 1.025h-2.373c0-.579.192-1.119.576-1.621.384-.507.905-.905 1.563-1.191.664-.286 1.403-.43 2.217-.43 1.236 0 2.223.313 2.959.938.735.618 1.113 1.491 1.132 2.617v4.766c0 .95.134 1.709.401 2.275V651zm-2.608-1.709c.469 0 .909-.114 1.319-.342.416-.228.729-.534.937-.918v-1.992h-1.279c-.879 0-1.54.153-1.982.459-.443.306-.665.739-.665 1.299 0 .456.15.82.45 1.094.306.267.713.4 1.22.4zm10.088-11.426v2.569h1.866v1.757h-1.866v5.899c0 .403.078.696.235.879.162.176.449.263.859.263.273 0 .55-.032.83-.097v1.836a5.869 5.869 0 01-1.562.224c-1.823 0-2.735-1.006-2.735-3.017v-5.987h-1.738v-1.757h1.738v-2.569zM192.49 651h-2.373v-10.566h2.373zm-2.519-13.311c0-.364.114-.667.341-.908.235-.241.567-.361.997-.361.429 0 .761.12.996.361.234.241.351.544.351.908 0 .359-.117.658-.351.899-.235.234-.567.351-.996.351-.43 0-.762-.117-.997-.351a1.26 1.26 0 01-.341-.899zm4.668 7.94c0-1.654.377-2.966 1.132-3.936.756-.97 1.778-1.455 3.067-1.455 1.178 0 2.113.414 2.803 1.241l.136-1.045h2.11v14.628h-2.373v-4.96c-.69.729-1.589 1.093-2.696 1.093-1.263 0-2.275-.491-3.037-1.474-.761-.99-1.142-2.354-1.142-4.092zm2.373.205c0 1.081.211 1.93.634 2.549.43.612 1.023.918 1.778.918.937 0 1.634-.401 2.09-1.201v-4.805c-.456-.768-1.146-1.152-2.071-1.152-.755 0-1.351.302-1.787.908-.429.605-.644 1.533-.644 2.783zm15.84 4.131c-.697.82-1.687 1.23-2.969 1.23-1.146 0-2.015-.335-2.608-1.006-.586-.67-.879-1.64-.879-2.91v-6.845h2.374v6.816c0 1.341.556 2.012 1.669 2.012 1.153 0 1.931-.414 2.334-1.241v-7.587h2.373V651h-2.236zm9.365 1.23c-1.504 0-2.725-.472-3.662-1.416-.931-.95-1.397-2.213-1.397-3.789v-.293c0-1.054.202-1.995.606-2.822.41-.833.983-1.481 1.718-1.943a4.526 4.526 0 012.461-.694c1.439 0 2.549.459 3.33 1.377.788.918 1.182 2.217 1.182 3.897v.957h-6.904c.071.872.361 1.562.869 2.07.514.508 1.159.762 1.934.762 1.087 0 1.972-.44 2.656-1.319l1.279 1.221a4.304 4.304 0 01-1.699 1.475c-.703.345-1.494.517-2.373.517zm-.283-9.052c-.651 0-1.179.227-1.582.683-.398.456-.651 1.091-.762 1.904h4.521v-.175c-.052-.795-.263-1.394-.634-1.797-.372-.41-.886-.615-1.543-.615zm12.295 5.986c0-.423-.176-.746-.528-.967-.345-.221-.921-.417-1.728-.586-.808-.169-1.481-.384-2.022-.644-1.185-.573-1.777-1.403-1.777-2.491 0-.911.384-1.673 1.152-2.285s1.745-.918 2.93-.918c1.263 0 2.282.313 3.056.938.782.625 1.172 1.435 1.172 2.431h-2.373c0-.455-.169-.833-.507-1.132-.339-.306-.788-.459-1.348-.459-.521 0-.947.12-1.279.361a1.142 1.142 0 00-.489.967.96.96 0 00.459.849c.306.202.925.407 1.856.616.931.201 1.66.446 2.187.732.534.28.928.619 1.182 1.016.26.397.39.879.39 1.445 0 .95-.393 1.722-1.181 2.314-.788.586-1.82.879-3.096.879-.866 0-1.637-.156-2.314-.468-.677-.313-1.205-.743-1.582-1.289a3.052 3.052 0 01-.567-1.768h2.305c.033.56.244.993.635 1.299.39.299.908.449 1.552.449.625 0 1.101-.117 1.426-.352.326-.24.489-.553.489-.937z" fill="#000"/><circle cx="163" cy="891.5" r="92.5" stroke="#000" stroke-width="2"/><path d="M107.756 883v-14.219h4.199c1.257 0 2.37.28 3.34.84a5.722 5.722 0 012.266 2.383c.533 1.029.8 2.207.8 3.535v.713c0 1.348-.27 2.533-.81 3.555a5.619 5.619 0 01-2.295 2.363c-.99.553-2.126.83-3.408.83zm2.471-12.227v10.254h1.611c1.295 0 2.288-.403 2.978-1.211.697-.813 1.052-1.979 1.065-3.496v-.791c0-1.543-.335-2.721-1.006-3.535s-1.644-1.221-2.92-1.221zm15.019 12.422c-1.504 0-2.725-.472-3.662-1.416-.931-.95-1.396-2.213-1.396-3.789v-.293c0-1.054.201-1.995.605-2.822.41-.833.983-1.481 1.719-1.943a4.523 4.523 0 012.461-.694c1.438 0 2.548.459 3.33 1.377.787.918 1.181 2.217 1.181 3.897v.957h-6.904c.072.872.361 1.562.869 2.07.515.508 1.159.762 1.934.762 1.087 0 1.972-.44 2.656-1.319l1.279 1.221a4.297 4.297 0 01-1.699 1.475c-.703.345-1.494.517-2.373.517zm-.283-9.052c-.651 0-1.178.227-1.582.683-.397.456-.651 1.091-.762 1.904h4.522v-.175c-.052-.795-.264-1.394-.635-1.797-.371-.41-.886-.615-1.543-.615zM125.5 868h2.705l-2.705 2.959h-1.904zm15.088 9.824c0 1.634-.371 2.94-1.113 3.916-.743.97-1.739 1.455-2.989 1.455-1.159 0-2.086-.381-2.783-1.142v5.009h-2.373v-14.628h2.188l.097 1.074c.697-.847 1.644-1.27 2.842-1.27 1.289 0 2.298.482 3.027 1.446.736.957 1.104 2.288 1.104 3.994zm-2.363-.205c0-1.055-.212-1.891-.635-2.51-.417-.618-1.016-.927-1.797-.927-.97 0-1.667.4-2.09 1.201v4.687c.43.821 1.133 1.231 2.109 1.231.756 0 1.345-.303 1.768-.908.43-.612.645-1.537.645-2.774zm6.904 5.381h-2.373v-15h2.373zm2.148-5.381c0-1.035.205-1.966.616-2.793.41-.833.986-1.471 1.728-1.914.742-.449 1.595-.674 2.559-.674 1.425 0 2.581.459 3.466 1.377.892.918 1.374 2.136 1.446 3.653l.01.556c0 1.042-.202 1.973-.606 2.793a4.391 4.391 0 01-1.719 1.904c-.742.45-1.601.674-2.578.674-1.491 0-2.685-.494-3.584-1.484-.892-.996-1.338-2.321-1.338-3.975zm2.373.205c0 1.087.225 1.94.674 2.559.449.612 1.074.918 1.875.918s1.423-.313 1.865-.938c.45-.625.674-1.539.674-2.744 0-1.068-.231-1.914-.693-2.539-.456-.625-1.078-.937-1.865-.937-.775 0-1.39.309-1.846.927-.456.612-.684 1.53-.684 2.754zM161.633 883h-2.373v-10.566h2.373zm-2.52-13.311c0-.364.114-.667.342-.908.234-.241.566-.361.996-.361s.762.12.996.361c.235.241.352.544.352.908 0 .359-.117.658-.352.899-.234.234-.566.351-.996.351s-.762-.117-.996-.351a1.256 1.256 0 01-.342-.899zm9.766 13.506c-1.504 0-2.725-.472-3.662-1.416-.931-.95-1.397-2.213-1.397-3.789v-.293c0-1.054.202-1.995.606-2.822.41-.833.983-1.481 1.719-1.943a4.523 4.523 0 012.46-.694c1.439 0 2.549.459 3.331 1.377.787.918 1.181 2.217 1.181 3.897v.957h-6.904c.072.872.361 1.562.869 2.07.514.508 1.159.762 1.934.762 1.087 0 1.972-.44 2.656-1.319l1.279 1.221a4.297 4.297 0 01-1.699 1.475c-.703.345-1.494.517-2.373.517zm-.283-9.052c-.651 0-1.179.227-1.582.683-.397.456-.651 1.091-.762 1.904h4.521v-.175c-.052-.795-.263-1.394-.634-1.797-.371-.41-.886-.615-1.543-.615zm8.603-1.709l.069 1.103c.742-.866 1.757-1.299 3.046-1.299 1.413 0 2.38.541 2.901 1.621.768-1.08 1.849-1.621 3.242-1.621 1.165 0 2.031.323 2.598.967.573.645.866 1.595.879 2.852V883h-2.373v-6.875c0-.671-.147-1.162-.44-1.475-.293-.312-.778-.468-1.455-.468-.54 0-.983.146-1.328.439a2.279 2.279 0 00-.713 1.133l.01 7.246h-2.373v-6.953c-.033-1.244-.668-1.865-1.905-1.865-.95 0-1.624.387-2.021 1.162V883h-2.373v-10.566zm19.824 10.761c-1.503 0-2.724-.472-3.662-1.416-.931-.95-1.396-2.213-1.396-3.789v-.293c0-1.054.202-1.995.605-2.822.41-.833.983-1.481 1.719-1.943a4.526 4.526 0 012.461-.694c1.439 0 2.549.459 3.33 1.377.788.918 1.182 2.217 1.182 3.897v.957h-6.905c.072.872.362 1.562.87 2.07.514.508 1.158.762 1.933.762 1.087 0 1.973-.44 2.656-1.319l1.28 1.221a4.3 4.3 0 01-1.7 1.475c-.703.345-1.494.517-2.373.517zm-.283-9.052c-.651 0-1.178.227-1.582.683-.397.456-.651 1.091-.762 1.904h4.522v-.175c-.052-.795-.264-1.394-.635-1.797-.371-.41-.885-.615-1.543-.615zm8.574-1.709l.069 1.22c.781-.944 1.806-1.416 3.076-1.416 2.201 0 3.32 1.26 3.359 3.78V883h-2.373v-6.846c0-.67-.146-1.165-.439-1.484-.287-.326-.759-.488-1.416-.488-.957 0-1.67.433-2.139 1.298V883h-2.373v-10.566zm11.905-2.569v2.569h1.865v1.757h-1.865v5.899c0 .403.078.696.234.879.163.176.449.263.859.263.274 0 .551-.032.831-.097v1.836a5.882 5.882 0 01-1.563.224c-1.823 0-2.734-1.006-2.734-3.017v-5.987h-1.739v-1.757h1.739v-2.569zm-88.135 39.824h-5.508L122.424 913h-2.569l5.372-14.219h2.216L132.824 913h-2.578zm-4.814-1.992h4.121l-2.061-5.898zm12.744-7.832v2.569h1.865v1.757h-1.865v5.899c0 .403.078.696.234.879.163.176.449.263.859.263.274 0 .551-.032.831-.097v1.836a5.882 5.882 0 01-1.563.224c-1.823 0-2.734-1.006-2.734-3.017v-5.987h-1.739v-1.757h1.739v-2.569zm2.949 7.754c0-1.035.205-1.966.615-2.793.41-.833.986-1.471 1.729-1.914.742-.449 1.595-.674 2.558-.674 1.426 0 2.582.459 3.467 1.377.892.918 1.374 2.136 1.445 3.653l.01.556c0 1.042-.202 1.973-.605 2.793a4.391 4.391 0 01-1.719 1.904c-.742.45-1.602.674-2.578.674-1.491 0-2.686-.494-3.584-1.484-.892-.996-1.338-2.321-1.338-3.975zm2.373.205c0 1.087.225 1.94.674 2.559.449.612 1.074.918 1.875.918s1.422-.313 1.865-.938c.449-.625.674-1.539.674-2.744 0-1.068-.231-1.914-.694-2.539-.455-.625-1.077-.937-1.865-.937-.775 0-1.39.309-1.845.927-.456.612-.684 1.53-.684 2.754zm11.689-5.39l.069 1.103c.742-.866 1.758-1.299 3.047-1.299 1.412 0 2.379.541 2.9 1.621.768-1.08 1.849-1.621 3.242-1.621 1.166 0 2.031.323 2.598.967.573.645.866 1.595.879 2.852V913h-2.373v-6.875c0-.671-.147-1.162-.44-1.475-.293-.312-.778-.468-1.455-.468-.54 0-.983.146-1.328.439a2.285 2.285 0 00-.713 1.133l.01 7.246h-2.373v-6.953c-.033-1.244-.667-1.865-1.904-1.865-.951 0-1.625.387-2.022 1.162V913h-2.373v-10.566zM171.721 913h-2.373v-10.566h2.373zm-2.52-13.311c0-.364.114-.667.342-.908.234-.241.566-.361.996-.361s.762.12.996.361c.235.241.352.544.352.908 0 .359-.117.658-.352.899-.234.234-.566.351-.996.351s-.762-.117-.996-.351a1.256 1.256 0 01-.342-.899zm4.668 7.94c0-1.654.378-2.966 1.133-3.936s1.777-1.455 3.066-1.455c1.179 0 2.113.414 2.803 1.241l.137-1.045h2.109v14.628h-2.373v-4.96c-.69.729-1.588 1.093-2.695 1.093-1.263 0-2.276-.491-3.037-1.474-.762-.99-1.143-2.354-1.143-4.092zm2.373.205c0 1.081.212 1.93.635 2.549.43.612 1.022.918 1.777.918.938 0 1.634-.401 2.09-1.201v-4.805c-.456-.768-1.146-1.152-2.07-1.152-.755 0-1.351.302-1.787.908-.43.605-.645 1.533-.645 2.783zm15.84 4.131c-.697.82-1.686 1.23-2.969 1.23-1.146 0-2.015-.335-2.607-1.006-.586-.67-.879-1.64-.879-2.91v-6.845H188v6.816c0 1.341.557 2.012 1.67 2.012 1.152 0 1.93-.414 2.334-1.241v-7.587h2.373V913h-2.236zm9.365 1.23c-1.504 0-2.724-.472-3.662-1.416-.931-.95-1.396-2.213-1.396-3.789v-.293c0-1.054.201-1.995.605-2.822.41-.833.983-1.481 1.719-1.943a4.526 4.526 0 012.461-.694c1.439 0 2.549.459 3.33 1.377.788.918 1.182 2.217 1.182 3.897v.957h-6.905c.072.872.362 1.562.869 2.07.515.508 1.159.762 1.934.762 1.087 0 1.973-.44 2.656-1.319l1.28 1.221a4.307 4.307 0 01-1.7 1.475c-.703.345-1.494.517-2.373.517zm-.283-9.052c-.651 0-1.178.227-1.582.683-.397.456-.651 1.091-.762 1.904h4.522v-.175c-.052-.795-.264-1.394-.635-1.797-.371-.41-.885-.615-1.543-.615z" fill="#000"/><circle cx="163" cy="1138.5" r="92.5" stroke="#000" stroke-width="2"/><path d="M114.006 1109.72v5.28h-2.471v-14.22h5.44c1.588 0 2.848.41 3.779 1.24.937.83 1.406 1.92 1.406 3.28 0 1.4-.459 2.48-1.377 3.25-.911.78-2.191 1.17-3.838 1.17zm0-1.99h2.969c.879 0 1.549-.2 2.011-.61.463-.42.694-1.02.694-1.8 0-.77-.235-1.38-.703-1.83-.469-.47-1.114-.7-1.934-.72h-3.037zm15.625-1.13a6.115 6.115 0 00-.967-.08c-1.087 0-1.82.42-2.197 1.25v7.23h-2.373v-10.57h2.265l.059 1.19c.573-.92 1.367-1.38 2.383-1.38.338 0 .618.04.84.14zm5.957 8.6c-1.504 0-2.725-.48-3.662-1.42-.931-.95-1.397-2.21-1.397-3.79v-.29c0-1.06.202-2 .606-2.82.41-.84.983-1.49 1.719-1.95a4.545 4.545 0 012.46-.69c1.439 0 2.549.46 3.331 1.38.787.91 1.181 2.21 1.181 3.89v.96h-6.904c.071.87.361 1.56.869 2.07.514.51 1.159.76 1.934.76 1.087 0 1.972-.44 2.656-1.32l1.279 1.22a4.31 4.31 0 01-1.699 1.48c-.703.34-1.494.52-2.373.52zm-.283-9.06c-.651 0-1.179.23-1.582.69-.397.45-.651 1.09-.762 1.9h4.521v-.18c-.052-.79-.263-1.39-.634-1.79-.371-.41-.886-.62-1.543-.62zm.537-6.14h2.705l-2.705 2.96h-1.904zm10.439 9.91h-5.127V1108h5.127zm7.49-3.31a6.092 6.092 0 00-.966-.08c-1.088 0-1.82.42-2.198 1.25v7.23h-2.373v-10.57h2.266l.059 1.19c.573-.92 1.367-1.38 2.382-1.38.339 0 .619.04.84.14zm5.958 8.6c-1.504 0-2.725-.48-3.663-1.42-.931-.95-1.396-2.21-1.396-3.79v-.29c0-1.06.202-2 .605-2.82.411-.84.983-1.49 1.719-1.95s1.556-.69 2.461-.69c1.439 0 2.549.46 3.33 1.38.788.91 1.182 2.21 1.182 3.89v.96h-6.905c.072.87.362 1.56.87 2.07.514.51 1.158.76 1.933.76 1.087 0 1.973-.44 2.656-1.32l1.28 1.22c-.423.63-.99 1.13-1.699 1.48-.704.34-1.495.52-2.373.52zm-.284-9.06c-.651 0-1.178.23-1.582.69-.397.45-.651 1.09-.761 1.9h4.521v-.18c-.052-.79-.264-1.39-.635-1.79-.371-.41-.885-.62-1.543-.62zm8.575-1.71l.068 1.22c.781-.94 1.807-1.41 3.076-1.41 2.201 0 3.32 1.26 3.359 3.78v6.98h-2.373v-6.85c0-.67-.146-1.16-.439-1.48-.287-.33-.759-.49-1.416-.49-.957 0-1.67.43-2.139 1.3v7.52h-2.373v-10.57zm8.486 5.21c0-1.63.377-2.93 1.133-3.92.755-.99 1.767-1.48 3.037-1.48 1.12 0 2.025.39 2.715 1.17V1100h2.373v15h-2.149l-.117-1.09c-.71.86-1.657 1.29-2.842 1.29-1.237 0-2.239-.5-3.008-1.5-.761-.99-1.142-2.35-1.142-4.06zm2.373.2c0 1.08.205 1.92.615 2.52.417.6 1.006.9 1.768.9.97 0 1.679-.43 2.129-1.3v-4.51c-.437-.85-1.14-1.27-2.11-1.27-.768 0-1.36.31-1.777.92s-.625 1.52-.625 2.74zm15.762 4.12c-.697.83-1.687 1.24-2.969 1.24-1.146 0-2.015-.34-2.608-1.01-.585-.67-.878-1.64-.878-2.91v-6.85h2.373v6.82c0 1.34.556 2.01 1.67 2.01 1.152 0 1.93-.41 2.333-1.24v-7.59h2.374V1115h-2.237zm9.316-2.8c0-.66.179-1.26.537-1.8.358-.56 1.065-1.21 2.119-1.97-.553-.69-.94-1.29-1.162-1.77a3.55 3.55 0 01-.322-1.42c0-1.11.338-1.99 1.016-2.64.677-.65 1.588-.97 2.734-.97 1.035 0 1.881.3 2.539.91.664.61.996 1.36.996 2.26 0 .59-.15 1.14-.449 1.64-.3.5-.791.99-1.475 1.48l-.967.71 2.745 3.24c.397-.78.595-1.65.595-2.61h2.061c0 1.75-.41 3.19-1.231 4.31l2.09 2.47h-2.754l-.8-.95c-1.016.76-2.227 1.15-3.633 1.15-1.407 0-2.533-.38-3.379-1.12-.84-.75-1.26-1.72-1.26-2.92zm4.707 2.14c.801 0 1.55-.27 2.246-.8l-3.105-3.66-.303.21c-.781.6-1.172 1.27-1.172 2.03 0 .66.212 1.2.635 1.61s.989.61 1.699.61zm-1.309-9.16c0 .55.336 1.23 1.006 2.06l1.084-.74.303-.25c.404-.35.606-.81.606-1.37 0-.37-.14-.69-.42-.95-.28-.27-.635-.4-1.065-.4-.462 0-.83.16-1.103.47-.274.31-.411.71-.411 1.18zM115.012 1145h-2.373v-10.57h2.373zm-2.52-13.31c0-.37.114-.67.342-.91.234-.24.566-.36.996-.36s.762.12.996.36c.235.24.352.54.352.91 0 .36-.117.66-.352.9-.234.23-.566.35-.996.35s-.762-.12-.996-.35a1.255 1.255 0 01-.342-.9zm7.315 2.74l.068 1.22c.781-.94 1.807-1.41 3.076-1.41 2.201 0 3.32 1.26 3.36 3.78v6.98h-2.373v-6.85c0-.67-.147-1.16-.44-1.48-.286-.33-.758-.49-1.416-.49-.957 0-1.67.43-2.139 1.3v7.52h-2.373v-10.57zm12.656 7.56l2.236-7.56h2.451l-3.662 10.57h-2.06l-3.692-10.57h2.461zm12.334 3.01c-.104-.2-.195-.53-.274-.99-.755.79-1.679 1.19-2.773 1.19-1.061 0-1.927-.31-2.598-.91-.67-.61-1.006-1.36-1.006-2.25 0-1.13.417-1.99 1.25-2.59.84-.6 2.038-.91 3.594-.91h1.455v-.69c0-.55-.153-.98-.459-1.31s-.771-.5-1.396-.5c-.541 0-.983.14-1.328.42-.345.26-.518.6-.518 1.02h-2.373c0-.58.192-1.12.576-1.62.384-.51.905-.91 1.563-1.19.664-.29 1.403-.43 2.217-.43 1.237 0 2.223.31 2.959.94.735.61 1.113 1.49 1.132 2.61v4.77c0 .95.134 1.71.401 2.27v.17zm-2.608-1.71c.469 0 .909-.11 1.319-.34.416-.23.729-.53.937-.92v-1.99h-1.279c-.879 0-1.54.15-1.982.46-.443.3-.664.74-.664 1.3 0 .45.149.82.449 1.09.306.27.713.4 1.22.4zm9.639 1.71h-2.373v-15h2.373zm5.117 0h-2.373v-10.57h2.373zm-2.519-13.31c0-.37.114-.67.342-.91.234-.24.566-.36.996-.36.429 0 .761.12.996.36.234.24.351.54.351.91 0 .36-.117.66-.351.9-.235.23-.567.35-.996.35-.43 0-.762-.12-.996-.35a1.255 1.255 0 01-.342-.9zm4.668 7.95c0-1.63.377-2.93 1.133-3.92.755-.99 1.767-1.48 3.037-1.48 1.119 0 2.024.39 2.715 1.17V1130h2.373v15h-2.149l-.117-1.09c-.71.86-1.657 1.29-2.842 1.29-1.237 0-2.239-.5-3.008-1.5-.761-.99-1.142-2.35-1.142-4.06zm2.373.2c0 1.08.205 1.92.615 2.52.417.6 1.006.9 1.768.9.97 0 1.679-.43 2.129-1.3v-4.51c-.437-.85-1.14-1.27-2.11-1.27-.768 0-1.361.31-1.777.92-.417.61-.625 1.52-.625 2.74zm15.674 5.16c-.105-.2-.196-.53-.274-.99-.755.79-1.679 1.19-2.773 1.19-1.061 0-1.927-.31-2.598-.91-.67-.61-1.006-1.36-1.006-2.25 0-1.13.417-1.99 1.25-2.59.84-.6 2.038-.91 3.594-.91h1.455v-.69c0-.55-.153-.98-.459-1.31s-.771-.5-1.396-.5c-.541 0-.983.14-1.329.42-.345.26-.517.6-.517 1.02h-2.373c0-.58.192-1.12.576-1.62.384-.51.905-.91 1.563-1.19.664-.29 1.403-.43 2.216-.43 1.237 0 2.224.31 2.959.94.736.61 1.114 1.49 1.133 2.61v4.77c0 .95.134 1.71.4 2.27v.17zm-2.608-1.71c.469 0 .908-.11 1.319-.34.416-.23.729-.53.937-.92v-1.99h-1.279c-.879 0-1.54.15-1.983.46-.442.3-.664.74-.664 1.3 0 .45.15.82.449 1.09.306.27.713.4 1.221.4zm10.088-11.42v2.56h1.865v1.76h-1.865v5.9c0 .4.078.7.234.88.163.17.45.26.86.26.273 0 .55-.03.83-.1v1.84c-.54.15-1.061.23-1.563.23-1.822 0-2.734-1.01-2.734-3.02v-5.99h-1.738v-1.76h1.738v-2.56zm6.211 13.13h-2.373v-10.57h2.373zm-2.52-13.31c0-.37.114-.67.342-.91.235-.24.567-.36.996-.36.43 0 .762.12.996.36.235.24.352.54.352.91 0 .36-.117.66-.352.9-.234.23-.566.35-.996.35-.429 0-.761-.12-.996-.35a1.255 1.255 0 01-.342-.9zm4.668 7.93c0-1.04.206-1.97.616-2.79.41-.84.986-1.48 1.728-1.92.742-.45 1.595-.67 2.559-.67 1.426 0 2.581.46 3.467 1.38.892.91 1.373 2.13 1.445 3.65l.01.55c0 1.05-.202 1.98-.606 2.8-.397.82-.97 1.45-1.719 1.9-.742.45-1.601.68-2.578.68-1.491 0-2.685-.5-3.584-1.49-.892-1-1.338-2.32-1.338-3.97zm2.374.2c0 1.09.224 1.94.673 2.56.45.61 1.075.92 1.875.92.801 0 1.423-.31 1.866-.94.449-.62.673-1.54.673-2.74 0-1.07-.231-1.91-.693-2.54-.456-.62-1.077-.94-1.865-.94-.775 0-1.39.31-1.846.93-.456.61-.683 1.53-.683 2.75zm11.66-5.39l.068 1.22c.781-.94 1.807-1.41 3.076-1.41 2.201 0 3.321 1.26 3.36 3.78v6.98h-2.373v-6.85c0-.67-.147-1.16-.44-1.48-.286-.33-.758-.49-1.416-.49-.957 0-1.67.43-2.139 1.3v7.52h-2.373v-10.57zm-83.741 35.21c0-1.63.378-2.93 1.133-3.92s1.768-1.48 3.037-1.48c1.12 0 2.025.39 2.715 1.17V1160h2.373v15h-2.148l-.117-1.09c-.71.86-1.657 1.29-2.842 1.29-1.237 0-2.24-.5-3.008-1.5-.762-.99-1.143-2.35-1.143-4.06zm2.373.2c0 1.08.206 1.92.616 2.52.416.6 1.006.9 1.767.9.97 0 1.68-.43 2.129-1.3v-4.51c-.436-.85-1.139-1.27-2.109-1.27-.768 0-1.361.31-1.778.92-.416.61-.625 1.52-.625 2.74zm15.762 4.12c-.696.83-1.686 1.24-2.969 1.24-1.145 0-2.015-.34-2.607-1.01-.586-.67-.879-1.64-.879-2.91v-6.85h2.373v6.82c0 1.34.557 2.01 1.67 2.01 1.152 0 1.93-.41 2.334-1.24v-7.59h2.373V1175h-2.236zm14.033-.66c.593 0 1.084-.17 1.475-.52.391-.34.599-.77.625-1.28h2.236c-.026.66-.231 1.28-.615 1.85s-.905 1.02-1.562 1.35c-.658.33-1.368.5-2.129.5-1.478 0-2.65-.48-3.516-1.44s-1.299-2.28-1.299-3.97v-.24c0-1.61.43-2.89 1.289-3.86.86-.97 2.032-1.45 3.516-1.45 1.256 0 2.279.37 3.066 1.1.795.73 1.211 1.69 1.25 2.88h-2.236c-.026-.6-.234-1.1-.625-1.49-.384-.39-.876-.59-1.475-.59-.768 0-1.36.28-1.777.84s-.628 1.4-.635 2.53v.38c0 1.15.205 2 .616 2.57.416.56 1.015.84 1.796.84zm12.442 1.7c-.104-.2-.195-.53-.274-.99-.755.79-1.679 1.19-2.773 1.19-1.061 0-1.927-.31-2.598-.91-.67-.61-1.006-1.36-1.006-2.25 0-1.13.417-1.99 1.25-2.59.84-.6 2.038-.91 3.594-.91h1.455v-.69c0-.55-.153-.98-.459-1.31s-.771-.5-1.396-.5c-.541 0-.983.14-1.328.42-.345.26-.518.6-.518 1.02h-2.373c0-.58.192-1.12.576-1.62.384-.51.905-.91 1.563-1.19.664-.29 1.403-.43 2.216-.43 1.237 0 2.224.31 2.959.94.736.61 1.114 1.49 1.133 2.61v4.77c0 .95.134 1.71.401 2.27v.17zm-2.608-1.71c.469 0 .909-.11 1.319-.34.416-.23.729-.53.937-.92v-1.99h-1.279c-.879 0-1.54.15-1.982.46-.443.3-.665.74-.665 1.3 0 .45.15.82.45 1.09.306.27.713.4 1.22.4zm11.455.01c.593 0 1.084-.17 1.475-.52.391-.34.599-.77.625-1.28h2.236c-.026.66-.231 1.28-.615 1.85s-.905 1.02-1.562 1.35c-.658.33-1.368.5-2.129.5-1.478 0-2.65-.48-3.516-1.44s-1.299-2.28-1.299-3.97v-.24c0-1.61.43-2.89 1.289-3.86.86-.97 2.032-1.45 3.516-1.45 1.257 0 2.279.37 3.066 1.1.795.73 1.211 1.69 1.25 2.88h-2.236c-.026-.6-.234-1.1-.625-1.49-.384-.39-.876-.59-1.475-.59-.768 0-1.36.28-1.777.84s-.628 1.4-.635 2.53v.38c0 1.15.205 2 .616 2.57.416.56 1.015.84 1.796.84zm8.467-7.71c.775-.9 1.755-1.35 2.94-1.35 2.252 0 3.395 1.28 3.427 3.86v6.9h-2.373v-6.82c0-.73-.159-1.24-.478-1.54-.313-.31-.775-.46-1.387-.46-.95 0-1.66.42-2.129 1.27v7.55h-2.373v-15h2.373zm13.428 9.61c-1.504 0-2.725-.48-3.662-1.42-.931-.95-1.397-2.21-1.397-3.79v-.29c0-1.06.202-2 .606-2.82.41-.84.983-1.49 1.719-1.95a4.546 4.546 0 012.461-.69c1.438 0 2.548.46 3.33 1.38.787.91 1.181 2.21 1.181 3.89v.96h-6.904c.072.87.361 1.56.869 2.07.514.51 1.159.76 1.934.76 1.087 0 1.972-.44 2.656-1.32l1.279 1.22a4.31 4.31 0 01-1.699 1.48c-.703.34-1.494.52-2.373.52zm-.283-9.06c-.651 0-1.179.23-1.582.69-.397.45-.651 1.09-.762 1.9h4.522v-.18c-.053-.79-.264-1.39-.635-1.79-.371-.41-.886-.62-1.543-.62z" fill="#000"/><path d="M0 1301a9 9 0 019-9h308a9 9 0 019 9v74a9 9 0 01-9 9H9a9 9 0 01-9-9z" fill="#e88da3"/><path d="M95.97 1330.78l4.102 10.9 4.092-10.9h3.193V1345h-2.461v-4.69l.245-6.27-4.2 10.96h-1.767l-4.19-10.95.244 6.26v4.69h-2.46v-14.22zm16.612 14.22h-2.373v-10.57h2.373zm-2.52-13.31c0-.37.114-.67.342-.91.235-.24.567-.36.996-.36.43 0 .762.12.996.36.235.24.352.54.352.91 0 .36-.117.66-.352.9-.234.23-.566.35-.996.35-.429 0-.761-.12-.996-.35a1.255 1.255 0 01-.342-.9zm11.036 10.44c0-.42-.176-.75-.528-.97-.345-.22-.921-.41-1.728-.58s-1.481-.39-2.022-.65c-1.185-.57-1.777-1.4-1.777-2.49 0-.91.384-1.67 1.152-2.28.769-.62 1.745-.92 2.93-.92 1.263 0 2.282.31 3.057.94.781.62 1.172 1.43 1.172 2.43h-2.374c0-.46-.169-.84-.507-1.14-.339-.3-.788-.45-1.348-.45-.521 0-.947.12-1.279.36-.326.24-.489.56-.489.96 0 .37.153.65.459.85.306.21.925.41 1.856.62.931.2 1.66.44 2.187.73.534.28.928.62 1.182 1.02.26.39.391.88.391 1.44 0 .95-.394 1.72-1.182 2.32-.788.58-1.82.88-3.096.88-.866 0-1.637-.16-2.314-.47-.677-.32-1.205-.75-1.582-1.29a3.067 3.067 0 01-.567-1.77h2.305c.033.56.244.99.635 1.3.39.3.908.45 1.553.45.625 0 1.1-.12 1.425-.35.326-.24.489-.56.489-.94zm9.062 3.07c-1.504 0-2.724-.48-3.662-1.42-.931-.95-1.396-2.21-1.396-3.79v-.29c0-1.06.201-2 .605-2.82.41-.84.983-1.49 1.719-1.95a4.546 4.546 0 012.461-.69c1.439 0 2.549.46 3.33 1.38.788.91 1.181 2.21 1.181 3.89v.96h-6.904c.072.87.361 1.56.869 2.07.515.51 1.159.76 1.934.76 1.087 0 1.973-.44 2.656-1.32l1.279 1.22a4.31 4.31 0 01-1.699 1.48c-.703.34-1.494.52-2.373.52zm-.283-9.06c-.651 0-1.178.23-1.582.69-.397.45-.651 1.09-.762 1.9h4.522v-.18c-.052-.79-.264-1.39-.635-1.79-.371-.41-.885-.62-1.543-.62zm17.666 8.86c-.104-.2-.195-.53-.273-.99-.756.79-1.68 1.19-2.774 1.19-1.061 0-1.927-.31-2.598-.91-.67-.61-1.005-1.36-1.005-2.25 0-1.13.416-1.99 1.25-2.59.839-.6 2.037-.91 3.593-.91h1.455v-.69c0-.55-.153-.98-.459-1.31s-.771-.5-1.396-.5c-.54 0-.983.14-1.328.42-.345.26-.518.6-.518 1.02h-2.373c0-.58.192-1.12.576-1.62.384-.51.905-.91 1.563-1.19.664-.29 1.403-.43 2.217-.43 1.237 0 2.223.31 2.959.94.735.61 1.113 1.49 1.132 2.61v4.77c0 .95.134 1.71.401 2.27v.17zm-2.607-1.71c.468 0 .908-.11 1.318-.34.417-.23.729-.53.937-.92v-1.99h-1.279c-.879 0-1.54.15-1.982.46-.443.3-.664.74-.664 1.3 0 .45.149.82.449 1.09.306.27.713.4 1.221.4zm1.855-10.33h-1.973l-2.636-2.96h2.705zm12.715 1.47v11.51c0 1.08-.27 1.9-.811 2.47-.534.57-1.318.86-2.353.86-.436 0-.856-.06-1.26-.17v-1.87c.247.06.527.08.84.08.788 0 1.191-.43 1.211-1.28v-11.6zm-2.578-2.74c0-.37.114-.67.342-.91.234-.24.566-.36.996-.36.429 0 .761.12.996.36.234.24.351.54.351.91 0 .36-.117.66-.351.9-.235.23-.567.35-.996.35-.43 0-.762-.12-.996-.35a1.255 1.255 0 01-.342-.9zm4.677 7.93c0-1.04.206-1.97.616-2.79.41-.84.986-1.48 1.728-1.92.742-.45 1.595-.67 2.559-.67 1.426 0 2.581.46 3.467 1.38.892.91 1.373 2.13 1.445 3.65l.01.55c0 1.05-.202 1.98-.606 2.8-.397.82-.97 1.45-1.719 1.9-.742.45-1.601.68-2.578.68-1.491 0-2.685-.5-3.584-1.49-.892-1-1.338-2.32-1.338-3.97zm2.374.2c0 1.09.224 1.94.673 2.56.45.61 1.075.92 1.875.92.801 0 1.423-.31 1.866-.94.449-.62.673-1.54.673-2.74 0-1.07-.231-1.91-.693-2.54-.456-.62-1.077-.94-1.865-.94-.775 0-1.39.31-1.846.93-.456.61-.683 1.53-.683 2.75zm15.859 4.14c-.697.83-1.686 1.24-2.969 1.24-1.146 0-2.015-.34-2.607-1.01-.586-.67-.879-1.64-.879-2.91v-6.85h2.373v6.82c0 1.34.556 2.01 1.67 2.01 1.152 0 1.93-.41 2.334-1.24v-7.59h2.373V1345h-2.237zm10.244-7.36a6.105 6.105 0 00-.967-.08c-1.087 0-1.819.42-2.197 1.25v7.23h-2.373v-10.57h2.266l.058 1.19c.573-.92 1.367-1.38 2.383-1.38.338 0 .618.04.84.14zm17.559 3.77c-.144 1.52-.703 2.7-1.68 3.56-.977.84-2.275 1.27-3.897 1.27-1.132 0-2.132-.27-2.998-.81-.859-.54-1.523-1.3-1.992-2.29s-.713-2.14-.732-3.45v-1.33c0-1.34.237-2.52.713-3.54.475-1.02 1.155-1.81 2.041-2.36.892-.56 1.92-.83 3.086-.83 1.569 0 2.832.42 3.789 1.28.957.85 1.513 2.05 1.67 3.61h-2.461c-.118-1.02-.417-1.76-.899-2.21-.475-.45-1.175-.68-2.099-.68-1.075 0-1.901.39-2.481 1.18-.573.78-.866 1.93-.879 3.45v1.26c0 1.53.274 2.7.821 3.51.553.81 1.36 1.21 2.421 1.21.971 0 1.7-.21 2.188-.65s.797-1.16.928-2.18zm2.216 4.63v-14.22h4.2c1.256 0 2.369.28 3.339.84.977.56 1.732 1.36 2.266 2.38.534 1.03.801 2.21.801 3.54v.71c0 1.35-.27 2.53-.811 3.56a5.6 5.6 0 01-2.295 2.36c-.989.55-2.125.83-3.408.83zm2.471-12.23v10.26h1.611c1.296 0 2.289-.41 2.979-1.21.697-.82 1.051-1.98 1.064-3.5v-.79c0-1.54-.335-2.72-1.005-3.54-.671-.81-1.644-1.22-2.92-1.22zm21.875 12.23h-2.471l-6.337-10.09V1345h-2.471v-14.22h2.471l6.357 10.13v-10.13h2.451z" fill="#000"/><g stroke="#000" stroke-width="2"><path d="M164 1232v60M164 985v60M164 738v60M164 491v60M164 339v60M164 92v60"/></g></svg>