<svg fill="none" height="212" viewBox="0 0 489 212" width="489" xmlns="http://www.w3.org/2000/svg"><rect fill="#00f5c4" height="66" rx="9" width="321" x="166" y="73"/><path d="m289.285 97.7812h2.461v9.9708c0 1.361-.426 2.441-1.279 3.242-.847.801-1.966 1.201-3.36 1.201-1.484 0-2.63-.374-3.437-1.123-.807-.748-1.211-1.79-1.211-3.125h2.461c0 .755.185 1.325.557 1.709.377.378.921.567 1.63.567.664 0 1.192-.218 1.582-.655.398-.442.596-1.051.596-1.826zm11.377 14.2188c-.104-.202-.195-.531-.273-.986-.756.787-1.68 1.181-2.774 1.181-1.061 0-1.927-.302-2.597-.908-.671-.605-1.006-1.354-1.006-2.246 0-1.126.416-1.989 1.25-2.588.84-.605 2.037-.908 3.593-.908h1.456v-.693c0-.547-.153-.984-.459-1.309-.306-.332-.772-.498-1.397-.498-.54 0-.983.137-1.328.41-.345.267-.518.609-.518 1.025h-2.373c0-.579.192-1.119.576-1.621.385-.507.905-.905 1.563-1.191.664-.286 1.403-.43 2.217-.43 1.237 0 2.223.313 2.959.938.735.618 1.113 1.491 1.133 2.617v4.766c0 .95.133 1.709.4 2.275v.166zm-2.607-1.709c.468 0 .908-.114 1.318-.342.417-.228.729-.534.938-.918v-1.992h-1.28c-.879 0-1.539.153-1.982.459s-.664.739-.664 1.299c0 .456.15.82.449 1.094.306.267.713.4 1.221.4zm10.683-1.299 2.237-7.558h2.451l-3.662 10.566h-2.061l-3.691-10.566h2.461zm12.334 3.008c-.104-.202-.195-.531-.273-.986-.755.787-1.68 1.181-2.774 1.181-1.061 0-1.927-.302-2.597-.908-.671-.605-1.006-1.354-1.006-2.246 0-1.126.417-1.989 1.25-2.588.84-.605 2.038-.908 3.594-.908h1.455v-.693c0-.547-.153-.984-.459-1.309-.306-.332-.772-.498-1.397-.498-.54 0-.983.137-1.328.41-.345.267-.517.609-.517 1.025h-2.374c0-.579.193-1.119.577-1.621.384-.507.905-.905 1.562-1.191.664-.286 1.403-.43 2.217-.43 1.237 0 2.223.313 2.959.938.736.618 1.113 1.491 1.133 2.617v4.766c0 .95.133 1.709.4 2.275v.166zm-2.607-1.709c.469 0 .908-.114 1.318-.342.417-.228.729-.534.938-.918v-1.992h-1.28c-.879 0-1.539.153-1.982.459s-.664.739-.664 1.299c0 .456.15.82.449 1.094.306.267.713.4 1.221.4zm14.775-1.953c0-.625-.221-1.107-.664-1.445-.436-.339-1.227-.681-2.373-1.026s-2.057-.729-2.734-1.152c-1.296-.814-1.944-1.875-1.944-3.184 0-1.146.466-2.0896 1.397-2.8318.937-.7422 2.152-1.1133 3.642-1.1133.99 0 1.872.1823 2.647.5469s1.383.8854 1.826 1.5625c.443.6707.664 1.4157.664 2.2367h-2.461c0-.743-.234-1.322-.703-1.739-.462-.4228-1.126-.6344-1.992-.6344-.807 0-1.436.1725-1.885.5174-.443.345-.664.827-.664 1.445 0 .521.241.958.723 1.309.482.345 1.276.684 2.383 1.016 1.106.325 1.995.7 2.666 1.123.67.416 1.162.898 1.474 1.445.313.54.469 1.175.469 1.904 0 1.185-.456 2.129-1.367 2.832-.905.697-2.136 1.045-3.692 1.045-1.028 0-1.976-.188-2.841-.566-.86-.384-1.53-.912-2.012-1.582-.475-.671-.713-1.452-.713-2.344h2.471c0 .807.267 1.432.8 1.875.534.443 1.299.664 2.295.664.86 0 1.504-.172 1.934-.517.436-.352.654-.814.654-1.387zm8.75 1.963c.593 0 1.084-.173 1.475-.518.39-.345.599-.771.625-1.279h2.236c-.026.657-.231 1.273-.615 1.846-.384.566-.905 1.015-1.563 1.347-.657.332-1.367.498-2.128.498-1.478 0-2.65-.478-3.516-1.435s-1.299-2.279-1.299-3.965v-.244c0-1.608.43-2.894 1.289-3.858.86-.97 2.031-1.455 3.516-1.455 1.256 0 2.278.368 3.066 1.104.794.729 1.211 1.689 1.25 2.881h-2.236c-.026-.606-.235-1.104-.625-1.494-.384-.391-.876-.586-1.475-.586-.768 0-1.36.28-1.777.839-.417.554-.628 1.397-.635 2.53v.381c0 1.145.205 2.002.615 2.568.417.56 1.016.84 1.797.84zm11.66-6.699c-.312-.053-.634-.079-.966-.079-1.088 0-1.82.417-2.198 1.25v7.227h-2.373v-10.566h2.266l.059 1.181c.572-.918 1.367-1.377 2.382-1.377.339 0 .619.046.84.137zm4.024 8.398h-2.373v-10.566h2.373zm-2.52-13.3105c0-.3646.114-.6674.342-.9083.234-.2408.566-.3613.996-.3613s.762.1205.996.3613c.235.2409.352.5437.352.9083 0 .358-.117.6575-.352.8984-.234.2344-.566.3516-.996.3516s-.762-.1172-.996-.3516c-.228-.2409-.342-.5404-.342-.8984zm14.366 8.1345c0 1.634-.372 2.94-1.114 3.916-.742.97-1.738 1.455-2.988 1.455-1.159 0-2.087-.381-2.783-1.142v5.009h-2.373v-14.628h2.187l.098 1.074c.696-.847 1.644-1.27 2.842-1.27 1.289 0 2.298.482 3.027 1.446.736.957 1.104 2.288 1.104 3.994zm-2.364-.205c0-1.055-.211-1.891-.635-2.51-.416-.618-1.015-.927-1.796-.927-.97 0-1.667.4-2.09 1.201v4.687c.429.821 1.133 1.231 2.109 1.231.755 0 1.345-.303 1.768-.908.429-.612.644-1.537.644-2.774zm7.354-7.7538v2.5688h1.865v1.757h-1.865v5.899c0 .403.078.696.234.879.163.176.449.263.86.263.273 0 .55-.032.83-.097v1.836c-.541.149-1.062.224-1.563.224-1.823 0-2.734-1.006-2.734-3.017v-5.987h-1.739v-1.757h1.739v-2.5688z" fill="#000"/><rect fill="#ff871f" height="66" rx="9" width="323" x="166"/><path d="m318.25 36.6895h-5.508l-1.152 3.3105h-2.569l5.372-14.2188h2.216l5.381 14.2188h-2.578zm-4.814-1.9922h4.121l-2.061-5.8985zm12.646.0195v5.2832h-2.471v-14.2188h5.44c1.588 0 2.848.4135 3.779 1.2403.938.8268 1.406 1.9206 1.406 3.2812 0 1.3933-.459 2.4772-1.377 3.252-.911.7747-2.19 1.1621-3.838 1.1621zm0-1.9824h2.969c.879 0 1.549-.2051 2.011-.6153.463-.4166.694-1.0156.694-1.7968 0-.7683-.235-1.3802-.703-1.836-.469-.4622-1.114-.6998-1.934-.7129h-3.037zm12.93 7.2656h-2.461v-14.2188h2.461zm8.73-2.8711c0-.4232-.176-.7454-.527-.9668-.345-.2213-.921-.4167-1.729-.5859-.807-.1693-1.481-.3841-2.021-.6446-1.185-.5729-1.777-1.403-1.777-2.4902 0-.9115.384-1.6732 1.152-2.2852.768-.6119 1.745-.9179 2.93-.9179 1.263 0 2.281.3125 3.056.9375.781.625 1.172 1.4355 1.172 2.4316h-2.373c0-.4557-.169-.8333-.508-1.1328-.338-.306-.788-.459-1.347-.459-.521 0-.948.1205-1.28.3614-.325.2408-.488.5631-.488.9668 0 .3645.153.6477.459.8496.306.2018.924.4069 1.855.6152.931.2018 1.661.446 2.188.7324.534.28.928.6185 1.182 1.0156.26.3972.39.8789.39 1.4454 0 .9505-.394 1.722-1.181 2.3144-.788.5859-1.82.8789-3.096.8789-.866 0-1.638-.1562-2.315-.4687s-1.204-.7422-1.582-1.2891c-.377-.5469-.566-1.1361-.566-1.7676h2.305c.032.5599.244.9929.634 1.2989.391.2994.909.4492 1.553.4492.625 0 1.1-.1172 1.426-.3516.325-.2409.488-.5534.488-.9375z" fill="#000"/><rect fill="#e88da3" height="66" rx="9" width="326" x="163" y="146"/><path d="m299.841 171.781 4.101 10.899 4.092-10.899h3.193v14.219h-2.461v-4.688l.245-6.269-4.2 10.957h-1.767l-4.19-10.947.244 6.259v4.688h-2.461v-14.219zm20.4 14.219c-.104-.202-.195-.531-.273-.986-.756.787-1.68 1.181-2.774 1.181-1.061 0-1.927-.302-2.598-.908-.67-.605-1.005-1.354-1.005-2.246 0-1.126.416-1.989 1.25-2.588.839-.605 2.037-.908 3.593-.908h1.455v-.693c0-.547-.153-.984-.459-1.309-.306-.332-.771-.498-1.396-.498-.54 0-.983.137-1.328.41-.345.267-.518.609-.518 1.025h-2.373c0-.579.192-1.119.576-1.621.385-.507.905-.905 1.563-1.191.664-.286 1.403-.43 2.217-.43 1.237 0 2.223.313 2.959.938.735.618 1.113 1.491 1.132 2.617v4.766c0 .95.134 1.709.401 2.275v.166zm-2.607-1.709c.468 0 .908-.114 1.318-.342.417-.228.729-.534.937-.918v-1.992h-1.279c-.879 0-1.54.153-1.982.459-.443.306-.664.739-.664 1.299 0 .456.149.82.449 1.094.306.267.713.4 1.221.4zm12.646-6.689c-.312-.053-.635-.079-.967-.079-1.087 0-1.819.417-2.197 1.25v7.227h-2.373v-10.566h2.266l.058 1.181c.573-.918 1.367-1.377 2.383-1.377.339 0 .618.046.84.137zm4.932 3.867-1.055 1.084v3.447h-2.373v-15h2.373v8.652l.742-.927 2.92-3.291h2.852l-3.926 4.404 4.346 6.162h-2.745zm13.418 3.496c-.697.82-1.687 1.23-2.969 1.23-1.146 0-2.015-.335-2.607-1.006-.586-.67-.879-1.64-.879-2.91v-6.845h2.373v6.816c0 1.341.556 2.012 1.67 2.012 1.152 0 1.93-.414 2.334-1.241v-7.587h2.373v10.566h-2.237zm13.965-4.141c0 1.634-.372 2.94-1.114 3.916-.742.97-1.738 1.455-2.988 1.455-1.159 0-2.087-.381-2.783-1.142v5.009h-2.373v-14.628h2.187l.098 1.074c.696-.847 1.644-1.27 2.842-1.27 1.289 0 2.298.482 3.027 1.446.736.957 1.104 2.288 1.104 3.994zm-2.364-.205c0-1.055-.211-1.891-.635-2.51-.416-.618-1.015-.927-1.796-.927-.97 0-1.667.4-2.09 1.201v4.687c.429.821 1.133 1.231 2.109 1.231.755 0 1.345-.303 1.768-.908.429-.612.644-1.537.644-2.774z" fill="#000"/><rect fill="#000" height="212" rx="9" width="160"/><path d="m47.168 108.689h-5.5078l-1.1524 3.311h-2.5683l5.371-14.2188h2.2168l5.3809 14.2188h-2.5781zm-4.8145-1.992h4.1211l-2.0605-5.898zm12.7735-5.263v11.504c0 1.08-.2702 1.904-.8106 2.47-.5338.573-1.3184.86-2.3535.86-.4362 0-.8561-.056-1.2598-.166v-1.875c.2474.058.5274.087.8399.087.7877 0 1.1914-.429 1.2109-1.289v-11.591zm-2.5782-2.7445c0-.3646.114-.6674.3418-.9083.2344-.2408.5664-.3613.9961-.3613s.7617.1205.9961.3613c.2344.2409.3516.5437.3516.9083 0 .358-.1172.6575-.3516.8984-.2344.2344-.5664.3516-.9961.3516s-.7617-.1172-.9961-.3516c-.2278-.2409-.3418-.5404-.3418-.8984zm7.3535 2.7445.0684 1.103c.7422-.866 1.7578-1.299 3.0469-1.299 1.4127 0 2.3795.541 2.9004 1.621.7682-1.08 1.8489-1.621 3.2422-1.621 1.1653 0 2.0312.323 2.5976.967.5729.645.8659 1.595.8789 2.852v6.943h-2.373v-6.875c0-.671-.1465-1.162-.4395-1.475-.293-.312-.778-.468-1.4551-.468-.5403 0-.983.146-1.3281.439-.3385.287-.5762.664-.7129 1.133l.0098 7.246h-2.3731v-6.953c-.0325-1.244-.6673-1.865-1.9043-1.865-.9505 0-1.6243.387-2.0214 1.162v7.656h-2.3731v-10.566zm21.0938 7.695c0-.423-.1758-.746-.5273-.967-.3451-.221-.9213-.417-1.7286-.586s-1.4811-.384-2.0214-.644c-1.1849-.573-1.7774-1.403-1.7774-2.491 0-.911.3841-1.673 1.1524-2.285.7682-.612 1.7447-.918 2.9296-.918 1.2631 0 2.2819.313 3.0567.938.7812.625 1.1719 1.435 1.1719 2.431h-2.3731c0-.455-.1693-.833-.5078-1.132-.3385-.306-.7878-.459-1.3477-.459-.5208 0-.9472.12-1.2793.361-.3255.241-.4882.563-.4882.967 0 .364.153.648.4589.849.306.202.9245.407 1.8555.616.931.201 1.6602.446 2.1875.732.5339.28.9277.619 1.1817 1.016.2604.397.3906.879.3906 1.445 0 .95-.3939 1.722-1.1817 2.314-.7877.586-1.8196.879-3.0957.879-.8659 0-1.6373-.156-2.3144-.468-.6771-.313-1.2044-.743-1.5821-1.289-.3776-.547-.5664-1.137-.5664-1.768h2.3047c.0326.56.2442.993.6348 1.299.3906.299.9082.449 1.5527.449.625 0 1.1003-.117 1.4258-.352.3255-.24.4883-.553.4883-.937zm7.3828-10.2638v2.5688h1.8652v1.757h-1.8652v5.899c0 .403.0781.696.2344.879.1627.176.4492.263.8594.263.2734 0 .5501-.032.83-.097v1.836c-.5403.149-1.0612.224-1.5625.224-1.8229 0-2.7343-1.006-2.7343-3.017v-5.987h-1.7383v-1.757h1.7383v-2.5688zm10 13.1348c-.1042-.202-.1953-.531-.2734-.986-.7552.787-1.6797 1.181-2.7735 1.181-1.0612 0-1.9271-.302-2.5976-.908-.6706-.605-1.0059-1.354-1.0059-2.246 0-1.126.4167-1.989 1.25-2.588.8399-.605 2.0378-.908 3.5938-.908h1.455v-.693c0-.547-.153-.984-.4589-1.309-.306-.332-.7715-.498-1.3965-.498-.5404 0-.9831.137-1.3281.41-.3451.267-.5176.609-.5176 1.025h-2.3731c0-.579.1921-1.119.5762-1.621.3841-.507.9049-.905 1.5625-1.191.6641-.286 1.403-.43 2.2168-.43 1.237 0 2.2233.313 2.959.938.7354.618 1.1134 1.491 1.1324 2.617v4.766c0 .95.134 1.709.401 2.275v.166zm-2.6074-1.709c.4687 0 .9082-.114 1.3183-.342.4167-.228.7292-.534.9375-.918v-1.992h-1.2793c-.8789 0-1.5397.153-1.9824.459s-.664.739-.664 1.299c0 .456.1497.82.4492 1.094.306.267.7129.4 1.2207.4zm11.4555.01c.592 0 1.084-.173 1.474-.518.391-.345.599-.771.625-1.279h2.236c-.026.657-.231 1.273-.615 1.846-.384.566-.905 1.015-1.562 1.347-.658.332-1.367.498-2.129.498-1.478 0-2.65-.478-3.516-1.435s-1.299-2.279-1.299-3.965v-.244c0-1.608.43-2.894 1.289-3.858.86-.97 2.032-1.455 3.516-1.455 1.257 0 2.279.368 3.066 1.104.795.729 1.211 1.689 1.25 2.881h-2.236c-.026-.606-.234-1.104-.625-1.494-.384-.391-.875-.586-1.474-.586-.769 0-1.361.28-1.778.839-.416.554-.628 1.397-.635 2.53v.381c0 1.145.206 2.002.616 2.568.416.56 1.015.84 1.797.84zm9.56-2.832-1.055 1.084v3.447h-2.373v-15h2.373v8.652l.743-.927 2.92-3.291h2.851l-3.926 4.404 4.346 6.162h-2.744z" fill="#fff"/></svg>